<mxfile host="65bd71144e">
    <diagram id="qGTGstcwV3iZqemfnvY3" name="Page-1">
        <mxGraphModel dx="1097" dy="2124" grid="1" gridSize="10" guides="1" tooltips="1" connect="1" arrows="1" fold="1" page="1" pageScale="1" pageWidth="850" pageHeight="1100" math="0" shadow="0">
            <root>
                <mxCell id="0"/>
                <mxCell id="1" parent="0"/>
                <mxCell id="2" value="&lt;b&gt;Google &lt;/b&gt;Cloud Platform" style="fillColor=#F6F6F6;strokeColor=none;shadow=0;gradientColor=none;fontSize=14;align=left;spacing=10;fontColor=#717171;9E9E9E;verticalAlign=top;spacingTop=-4;fontStyle=0;spacingLeft=40;html=1;dashed=1;container=0;" parent="1" vertex="1">
                    <mxGeometry x="90" y="-70" width="1120" height="930" as="geometry"/>
                </mxCell>
                <mxCell id="3" value="" style="shape=mxgraph.gcp2.google_cloud_platform;fillColor=#F6F6F6;strokeColor=none;shadow=0;gradientColor=none;dashed=1;" parent="1" vertex="1">
                    <mxGeometry x="110" y="-60" width="23" height="20" as="geometry">
                        <mxPoint x="20" y="10" as="offset"/>
                    </mxGeometry>
                </mxCell>
                <mxCell id="4" value="MATRIX Initiative" style="sketch=0;points=[[0,0,0],[0.25,0,0],[0.5,0,0],[0.75,0,0],[1,0,0],[1,0.25,0],[1,0.5,0],[1,0.75,0],[1,1,0],[0.75,1,0],[0.5,1,0],[0.25,1,0],[0,1,0],[0,0.75,0],[0,0.5,0],[0,0.25,0]];rounded=1;absoluteArcSize=1;arcSize=2;html=1;strokeColor=none;gradientColor=none;shadow=0;dashed=0;fontSize=12;fontColor=#9E9E9E;align=left;verticalAlign=top;spacing=10;spacingTop=-4;fillColor=#F1F8E9;" parent="1" vertex="1">
                    <mxGeometry x="136.66" y="-16.020000000000003" width="1032.86" height="846.02" as="geometry"/>
                </mxCell>
                <mxCell id="49" value="Hub" style="sketch=0;points=[[0,0,0],[0.25,0,0],[0.5,0,0],[0.75,0,0],[1,0,0],[1,0.25,0],[1,0.5,0],[1,0.75,0],[1,1,0],[0.75,1,0],[0.5,1,0],[0.25,1,0],[0,1,0],[0,0.75,0],[0,0.5,0],[0,0.25,0]];rounded=1;absoluteArcSize=1;arcSize=2;html=1;strokeColor=none;gradientColor=none;shadow=0;dashed=0;fontSize=12;fontColor=#9E9E9E;align=left;verticalAlign=top;spacing=10;spacingTop=-4;fillColor=#E3F2FD;" parent="1" vertex="1">
                    <mxGeometry x="170.95999999999998" y="51.45" width="431.81" height="768.55" as="geometry"/>
                </mxCell>
                <mxCell id="50" value="us-central1" style="sketch=0;points=[[0,0,0],[0.25,0,0],[0.5,0,0],[0.75,0,0],[1,0,0],[1,0.25,0],[1,0.5,0],[1,0.75,0],[1,1,0],[0.75,1,0],[0.5,1,0],[0.25,1,0],[0,1,0],[0,0.75,0],[0,0.5,0],[0,0.25,0]];rounded=1;absoluteArcSize=1;arcSize=2;html=1;strokeColor=none;gradientColor=none;shadow=0;dashed=0;fontSize=12;fontColor=#9E9E9E;align=left;verticalAlign=top;spacing=10;spacingTop=-4;fillColor=#FFF3E0;" parent="49" vertex="1">
                    <mxGeometry width="390" height="700" relative="1" as="geometry">
                        <mxPoint x="10" y="50" as="offset"/>
                    </mxGeometry>
                </mxCell>
                <mxCell id="51" value="matrix-hub-dev-nw" style="sketch=0;points=[[0,0,0],[0.25,0,0],[0.5,0,0],[0.75,0,0],[1,0,0],[1,0.25,0],[1,0.5,0],[1,0.75,0],[1,1,0],[0.75,1,0],[0.5,1,0],[0.25,1,0],[0,1,0],[0,0.75,0],[0,0.5,0],[0,0.25,0]];rounded=1;absoluteArcSize=1;arcSize=2;html=1;strokeColor=none;gradientColor=none;shadow=0;dashed=0;fontSize=12;fontColor=#9E9E9E;align=left;verticalAlign=top;spacing=10;spacingTop=-4;fillColor=#EDE7F6;" parent="50" vertex="1">
                    <mxGeometry width="370" height="510" relative="1" as="geometry">
                        <mxPoint x="10" y="50" as="offset"/>
                    </mxGeometry>
                </mxCell>
                <mxCell id="57" value="Kubernetes cluster" style="sketch=0;points=[[0,0,0],[0.25,0,0],[0.5,0,0],[0.75,0,0],[1,0,0],[1,0.25,0],[1,0.5,0],[1,0.75,0],[1,1,0],[0.75,1,0],[0.5,1,0],[0.25,1,0],[0,1,0],[0,0.75,0],[0,0.5,0],[0,0.25,0]];rounded=1;absoluteArcSize=1;arcSize=2;html=1;strokeColor=none;gradientColor=none;shadow=0;dashed=0;fontSize=12;fontColor=#9E9E9E;align=left;verticalAlign=top;spacing=10;spacingTop=-4;fillColor=#FCE4EC;" parent="50" vertex="1">
                    <mxGeometry x="26.896551724137932" y="110" width="336.2068965517241" height="440" as="geometry"/>
                </mxCell>
                <mxCell id="58" value="orchestration (ArgoCD + Airflow)" style="sketch=0;points=[[0,0,0],[0.25,0,0],[0.5,0,0],[0.75,0,0],[1,0,0],[1,0.25,0],[1,0.5,0],[1,0.75,0],[1,1,0],[0.75,1,0],[0.5,1,0],[0.25,1,0],[0,1,0],[0,0.75,0],[0,0.5,0],[0,0.25,0]];rounded=1;absoluteArcSize=1;arcSize=2;html=1;strokeColor=none;gradientColor=none;shadow=0;dashed=0;fontSize=12;fontColor=#9E9E9E;align=left;verticalAlign=top;spacing=10;spacingTop=-4;fillColor=#E8F5E9;" parent="57" vertex="1">
                    <mxGeometry width="280" height="80" relative="1" as="geometry">
                        <mxPoint x="28" y="49" as="offset"/>
                    </mxGeometry>
                </mxCell>
                <mxCell id="65" value="Spark autoscaling compute" style="sketch=0;points=[[0,0,0],[0.25,0,0],[0.5,0,0],[0.75,0,0],[1,0,0],[1,0.25,0],[1,0.5,0],[1,0.75,0],[1,1,0],[0.75,1,0],[0.5,1,0],[0.25,1,0],[0,1,0],[0,0.75,0],[0,0.5,0],[0,0.25,0]];rounded=1;absoluteArcSize=1;arcSize=2;html=1;strokeColor=none;gradientColor=none;shadow=0;dashed=0;fontSize=12;fontColor=#9E9E9E;align=left;verticalAlign=top;spacing=10;spacingTop=-4;fillColor=#E8F5E9;" parent="57" vertex="1">
                    <mxGeometry x="26.896551724137936" y="152.1042168674699" width="280" height="80" as="geometry"/>
                </mxCell>
                <mxCell id="66" value="Ray Cluster" style="sketch=0;points=[[0,0,0],[0.25,0,0],[0.5,0,0],[0.75,0,0],[1,0,0],[1,0.25,0],[1,0.5,0],[1,0.75,0],[1,1,0],[0.75,1,0],[0.5,1,0],[0.25,1,0],[0,1,0],[0,0.75,0],[0,0.5,0],[0,0.25,0]];rounded=1;absoluteArcSize=1;arcSize=2;html=1;strokeColor=none;gradientColor=none;shadow=0;dashed=0;fontSize=12;fontColor=#9E9E9E;align=left;verticalAlign=top;spacing=10;spacingTop=-4;fillColor=#E8F5E9;" parent="57" vertex="1">
                    <mxGeometry x="26.896551724137936" y="248.55421686746988" width="280" height="80" as="geometry"/>
                </mxCell>
                <mxCell id="67" value="..." style="sketch=0;points=[[0,0,0],[0.25,0,0],[0.5,0,0],[0.75,0,0],[1,0,0],[1,0.25,0],[1,0.5,0],[1,0.75,0],[1,1,0],[0.75,1,0],[0.5,1,0],[0.25,1,0],[0,1,0],[0,0.75,0],[0,0.5,0],[0,0.25,0]];rounded=1;absoluteArcSize=1;arcSize=2;html=1;strokeColor=none;gradientColor=none;shadow=0;dashed=0;fontSize=12;fontColor=#9E9E9E;align=left;verticalAlign=top;spacing=10;spacingTop=-4;fillColor=#E8F5E9;" parent="57" vertex="1">
                    <mxGeometry x="26.896551724137936" y="352.5" width="280" height="80" as="geometry"/>
                </mxCell>
                <mxCell id="64" value="matrix-hub-prod-nw" style="sketch=0;points=[[0,0,0],[0.25,0,0],[0.5,0,0],[0.75,0,0],[1,0,0],[1,0.25,0],[1,0.5,0],[1,0.75,0],[1,1,0],[0.75,1,0],[0.5,1,0],[0.25,1,0],[0,1,0],[0,0.75,0],[0,0.5,0],[0,0.25,0]];rounded=1;absoluteArcSize=1;arcSize=2;html=1;strokeColor=none;gradientColor=none;shadow=0;dashed=0;fontSize=12;fontColor=#9E9E9E;align=left;verticalAlign=top;spacing=10;spacingTop=-4;fillColor=#EDE7F6;" parent="50" vertex="1">
                    <mxGeometry x="13.45" y="575" width="366.55" height="112.5" as="geometry"/>
                </mxCell>
                <mxCell id="87" value="Kubernetes &lt;br&gt;cluster" style="sketch=0;points=[[0,0,0],[0.25,0,0],[0.5,0,0],[0.75,0,0],[1,0,0],[1,0.25,0],[1,0.5,0],[1,0.75,0],[1,1,0],[0.75,1,0],[0.5,1,0],[0.25,1,0],[0,1,0],[0,0.75,0],[0,0.5,0],[0,0.25,0]];rounded=1;absoluteArcSize=1;arcSize=2;html=1;strokeColor=none;gradientColor=none;shadow=0;dashed=0;fontSize=12;fontColor=#9E9E9E;align=left;verticalAlign=top;spacing=10;spacingTop=-4;fillColor=#FCE4EC;container=0;" vertex="1" parent="50">
                    <mxGeometry x="28.616144578313254" y="608.5542168674699" width="336.21" height="70" as="geometry"/>
                </mxCell>
                <mxCell id="88" value="" style="sketch=0;points=[[0,0,0],[0.25,0,0],[0.5,0,0],[0.75,0,0],[1,0,0],[1,0.25,0],[1,0.5,0],[1,0.75,0],[1,1,0],[0.75,1,0],[0.5,1,0],[0.25,1,0],[0,1,0],[0,0.75,0],[0,0.5,0],[0,0.25,0]];rounded=1;absoluteArcSize=1;arcSize=2;html=1;strokeColor=none;gradientColor=none;shadow=0;dashed=0;fontSize=12;fontColor=#9E9E9E;align=left;verticalAlign=top;spacing=10;spacingTop=-4;fillColor=#E8F5E9;" vertex="1" parent="50">
                    <mxGeometry x="148.61655172413788" y="613.5500000000001" width="60" height="60" as="geometry">
                        <mxPoint x="32" y="-80" as="offset"/>
                    </mxGeometry>
                </mxCell>
                <mxCell id="92" value="" style="sketch=0;points=[[0,0,0],[0.25,0,0],[0.5,0,0],[0.75,0,0],[1,0,0],[1,0.25,0],[1,0.5,0],[1,0.75,0],[1,1,0],[0.75,1,0],[0.5,1,0],[0.25,1,0],[0,1,0],[0,0.75,0],[0,0.5,0],[0,0.25,0]];rounded=1;absoluteArcSize=1;arcSize=2;html=1;strokeColor=none;gradientColor=none;shadow=0;dashed=0;fontSize=12;fontColor=#9E9E9E;align=left;verticalAlign=top;spacing=10;spacingTop=-4;fillColor=#E8F5E9;" vertex="1" parent="50">
                    <mxGeometry x="218.61614457831325" y="613.55" width="60" height="60" as="geometry"/>
                </mxCell>
                <mxCell id="93" value="" style="sketch=0;points=[[0,0,0],[0.25,0,0],[0.5,0,0],[0.75,0,0],[1,0,0],[1,0.25,0],[1,0.5,0],[1,0.75,0],[1,1,0],[0.75,1,0],[0.5,1,0],[0.25,1,0],[0,1,0],[0,0.75,0],[0,0.5,0],[0,0.25,0]];rounded=1;absoluteArcSize=1;arcSize=2;html=1;strokeColor=none;gradientColor=none;shadow=0;dashed=0;fontSize=12;fontColor=#9E9E9E;align=left;verticalAlign=top;spacing=10;spacingTop=-4;fillColor=#E8F5E9;" vertex="1" parent="50">
                    <mxGeometry x="290.71655172413796" y="613.55" width="60" height="60" as="geometry"/>
                </mxCell>
                <mxCell id="52" value="WG 1 - Data" style="sketch=0;points=[[0,0,0],[0.25,0,0],[0.5,0,0],[0.75,0,0],[1,0,0],[1,0.25,0],[1,0.5,0],[1,0.75,0],[1,1,0],[0.75,1,0],[0.5,1,0],[0.25,1,0],[0,1,0],[0,0.75,0],[0,0.5,0],[0,0.25,0]];rounded=1;absoluteArcSize=1;arcSize=2;html=1;strokeColor=none;gradientColor=none;shadow=0;dashed=0;fontSize=12;fontColor=#9E9E9E;align=left;verticalAlign=top;spacing=10;spacingTop=-4;fillColor=#E3F2FD;" parent="1" vertex="1">
                    <mxGeometry x="629.7590361445783" y="51.445783132530124" width="512.7710843373494" height="256.3855421686747" as="geometry"/>
                </mxCell>
                <mxCell id="55" value="WG 2 - Modelling" style="sketch=0;points=[[0,0,0],[0.25,0,0],[0.5,0,0],[0.75,0,0],[1,0,0],[1,0.25,0],[1,0.5,0],[1,0.75,0],[1,1,0],[0.75,1,0],[0.5,1,0],[0.25,1,0],[0,1,0],[0,0.75,0],[0,0.5,0],[0,0.25,0]];rounded=1;absoluteArcSize=1;arcSize=2;html=1;strokeColor=none;gradientColor=none;shadow=0;dashed=0;fontSize=12;fontColor=#9E9E9E;align=left;verticalAlign=top;spacing=10;spacingTop=-4;fillColor=#E3F2FD;" parent="1" vertex="1">
                    <mxGeometry x="629.76" y="330" width="512.77" height="210" as="geometry"/>
                </mxCell>
                <mxCell id="56" value="WG 1 - Validation" style="sketch=0;points=[[0,0,0],[0.25,0,0],[0.5,0,0],[0.75,0,0],[1,0,0],[1,0.25,0],[1,0.5,0],[1,0.75,0],[1,1,0],[0.75,1,0],[0.5,1,0],[0.25,1,0],[0,1,0],[0,0.75,0],[0,0.5,0],[0,0.25,0]];rounded=1;absoluteArcSize=1;arcSize=2;html=1;strokeColor=none;gradientColor=none;shadow=0;dashed=0;fontSize=12;fontColor=#9E9E9E;align=left;verticalAlign=top;spacing=10;spacingTop=-4;fillColor=#E3F2FD;" parent="1" vertex="1">
                    <mxGeometry x="629.7590361445783" y="563.6145783132531" width="512.7710843373494" height="210" as="geometry"/>
                </mxCell>
                <mxCell id="72" style="edgeStyle=orthogonalEdgeStyle;html=1;entryX=1;entryY=0.5;entryDx=0;entryDy=0;entryPerimeter=0;" parent="1" source="68" target="51" edge="1">
                    <mxGeometry relative="1" as="geometry"/>
                </mxCell>
                <mxCell id="68" value="shared vpc" style="sketch=0;points=[[0,0,0],[0.25,0,0],[0.5,0,0],[0.75,0,0],[1,0,0],[1,0.25,0],[1,0.5,0],[1,0.75,0],[1,1,0],[0.75,1,0],[0.5,1,0],[0.25,1,0],[0,1,0],[0,0.75,0],[0,0.5,0],[0,0.25,0]];rounded=1;absoluteArcSize=1;arcSize=2;html=1;strokeColor=none;gradientColor=none;shadow=0;dashed=0;fontSize=12;fontColor=#9E9E9E;align=left;verticalAlign=top;spacing=10;spacingTop=-4;fillColor=#EDE7F6;" parent="1" vertex="1">
                    <mxGeometry x="656.7469879518073" y="91.92771084337349" width="300" height="188.9156626506024" as="geometry"/>
                </mxCell>
                <mxCell id="71" style="edgeStyle=orthogonalEdgeStyle;html=1;entryX=1;entryY=0.5;entryDx=0;entryDy=0;entryPerimeter=0;" parent="1" source="69" target="51" edge="1">
                    <mxGeometry relative="1" as="geometry"/>
                </mxCell>
                <mxCell id="69" value="shared vpc" style="sketch=0;points=[[0,0,0],[0.25,0,0],[0.5,0,0],[0.75,0,0],[1,0,0],[1,0.25,0],[1,0.5,0],[1,0.75,0],[1,1,0],[0.75,1,0],[0.5,1,0],[0.25,1,0],[0,1,0],[0,0.75,0],[0,0.5,0],[0,0.25,0]];rounded=1;absoluteArcSize=1;arcSize=2;html=1;strokeColor=none;gradientColor=none;shadow=0;dashed=0;fontSize=12;fontColor=#9E9E9E;align=left;verticalAlign=top;spacing=10;spacingTop=-4;fillColor=#EDE7F6;" parent="1" vertex="1">
                    <mxGeometry x="656.75" y="370.48" width="300" height="129.52" as="geometry"/>
                </mxCell>
                <mxCell id="73" style="edgeStyle=orthogonalEdgeStyle;html=1;entryX=1;entryY=0.5;entryDx=0;entryDy=0;entryPerimeter=0;" parent="1" source="70" target="51" edge="1">
                    <mxGeometry relative="1" as="geometry"/>
                </mxCell>
                <mxCell id="70" value="shared vpc" style="sketch=0;points=[[0,0,0],[0.25,0,0],[0.5,0,0],[0.75,0,0],[1,0,0],[1,0.25,0],[1,0.5,0],[1,0.75,0],[1,1,0],[0.75,1,0],[0.5,1,0],[0.25,1,0],[0,1,0],[0,0.75,0],[0,0.5,0],[0,0.25,0]];rounded=1;absoluteArcSize=1;arcSize=2;html=1;strokeColor=none;gradientColor=none;shadow=0;dashed=0;fontSize=12;fontColor=#9E9E9E;align=left;verticalAlign=top;spacing=10;spacingTop=-4;fillColor=#EDE7F6;" parent="1" vertex="1">
                    <mxGeometry x="656.75" y="604.1" width="300" height="129.52" as="geometry"/>
                </mxCell>
                <mxCell id="79" value="" style="strokeColor=#dddddd;shadow=1;strokeWidth=1;rounded=1;absoluteArcSize=1;arcSize=2;" parent="1" vertex="1">
                    <mxGeometry x="980" y="110" width="130" height="60" as="geometry"/>
                </mxCell>
                <mxCell id="80" value="BigQuery" style="editableCssRules=.*;fontColor=#999999;shape=image;verticalLabelPosition=middle;labelBackgroundColor=#ffffff;verticalAlign=middle;labelPosition=right;align=left;spacingLeft=20;part=1;points=[];imageAspect=0;image=data:image/svg+xml,PHN2ZyB4bWxucz0iaHR0cDovL3d3dy53My5vcmcvMjAwMC9zdmciIHhtbG5zOnY9Imh0dHBzOi8vdmVjdGEuaW8vbmFubyIgd2lkdGg9IjIwLjAwMTA0NTIyNzA1MDc4IiBoZWlnaHQ9IjIwLjAwMTA0NTIyNzA1MDc4IiBmaWxsLXJ1bGU9ImV2ZW5vZGQiIHZpZXdCb3g9IjAgMCAyMC4wMDEwNDUyMjcwNTA3OCAyMC4wMDEwNDUyMjcwNTA3OCI+JiN4YTsJPHN0eWxlIHR5cGU9InRleHQvY3NzIj4mI3hhOwkuc3Qwe2ZpbGw6I2FlY2JmYTt9JiN4YTsJLnN0MXtmaWxsOiM2NjlkZjY7fSYjeGE7CS5zdDJ7ZmlsbDojNDI4NWY0O30mI3hhOwk8L3N0eWxlPiYjeGE7CTxwYXRoIGNsYXNzPSJzdDAiIGQ9Ik00LjczIDguODN2Mi42M2E0LjkxIDQuOTEgMCAwIDAgMS43MSAxLjc0VjguODN6Ii8+JiN4YTsJPHBhdGggY2xhc3M9InN0MSIgZD0iTTcuODkgNi40MXY3LjUzQTcuNjIgNy42MiAwIDAgMCA5IDE0YTggOCAwIDAgMCAxIDBWNi40MXoiLz4mI3hhOwk8cGF0aCBjbGFzcz0ic3QwIiBkPSJNMTEuNjQgOS44NnYzLjI5YTUgNSAwIDAgMCAxLjctMS44MlY5Ljg2eiIvPiYjeGE7CTxwYXRoIGNsYXNzPSJzdDIiIGQ9Ik0xNS43NCAxNC4zMmwtMS40MiAxLjQyYS40Mi40MiAwIDAgMCAwIC42bDMuNTQgMy41NGEuNDIuNDIgMCAwIDAgLjU5IDBsMS40My0xLjQzYS40Mi40MiAwIDAgMCAwLS41OWwtMy41NC0zLjU0YS40Mi40MiAwIDAgMC0uNiAwIi8+JiN4YTsJPHBhdGggY2xhc3M9InN0MSIgZD0iTTkgMGE5IDkgMCAxIDAgMCAxOEE5IDkgMCAxIDAgOSAwbTAgMTUuNjlhNi42OCA2LjY4IDAgMCAxIC4wMDctMTMuMzYgNi42OCA2LjY4IDAgMCAxIDQuNzI3IDExLjQwM0E2LjY4IDYuNjggMCAwIDEgOSAxNS42OSIvPiYjeGE7PC9zdmc+;" parent="79" vertex="1">
                    <mxGeometry width="30" height="30" relative="1" as="geometry">
                        <mxPoint x="15" y="15" as="offset"/>
                    </mxGeometry>
                </mxCell>
                <mxCell id="74" value="" style="shadow=1;strokeWidth=1;rounded=1;absoluteArcSize=1;arcSize=2;strokeColor=none;" parent="1" vertex="1">
                    <mxGeometry x="770" y="110" width="170" height="60" as="geometry"/>
                </mxCell>
                <mxCell id="75" value="&lt;div&gt;&lt;font color=&quot;#000000&quot;&gt;&lt;span style=&quot;caret-color: rgb(0, 0, 0);&quot;&gt;DS Workbenches&lt;/span&gt;&lt;/font&gt;&lt;/div&gt;&lt;div&gt;Vertex AI&lt;br&gt;&lt;/div&gt;" style="editableCssRules=.*;html=1;shape=image;verticalLabelPosition=middle;verticalAlign=middle;labelPosition=right;align=left;spacingLeft=20;part=1;points=[];imageAspect=0;image=data:image/png,iVBORw0KGgoAAAANSUhEUgAAAWwAAAFsCAYAAADon4O5AAAABGdBTUEAALGPC/xhBQAAACBjSFJNAAB6JgAAgIQAAPoAAACA6AAAdTAAAOpgAAA6mAAAF3CculE8AAAABmJLR0QA/wD/AP+gvaeTAAAAB3RJTUUH5wYPEgkTWmjp5QAAY8FJREFUeNrt3XmAXEW59/Hv75zunpnMZCNhB1FUxA1RCLheIbgrCmHxVa8KhARcroo7myir6NXrCmQDFRQVSETvVUQJoKBAwiKIgMi+Q8g2e3ef+r1/dCcEZElmTk/3ZOrDnVwh09V1Tp/zdJ2qp6ogiqIoiqIoiqIoiqIoiqIoiqIoiqIoiqIoiqIoiqIoiqIoiqIoiqIoiqIoiqIoiqIoiqIoiqIoiqIoiqIoiqIoiqIoiqIoiqIoiqIoiqIoiqIoiqIoiqIoiqIoiqIoiqIoiqIoiqIoiqIoiqIoiqIoiqIoiqIoiqIoiqIoiqIoiqIoiqIoiqIoiqIoiqIoiqIoiqIoiqIoiqIoiqIoiqIoiqIoiqIoiqIoGgvU7ApszBa6zGOHFJnwaatYrgJQKRVY/V150zMrzFCp2VWMog02/aS/AK8DrxBpCWeQBpP2riZ53lb+3SdiWGmUeGZztujqMklAWUoX9tYk7G60A2YqAGKZ8D8JXI30QJrRExK87+4xeEeta/o3euAe8DZ0KPOWhmmInYU2t+kQXgXcD/wVuDmtellIVL3kK+ObXfWNSgzYOVp09QBAlxO9Aeuj4D0QU4wKQFL/tSBcxTwOugz5xwq+EujZd/f2Zh9CFP2bPb7eA6KkjFdhPiy8t82WEkVQgoHaHxkwANwGnINYVChU78my1JccNaHZh7FRiAE7JwuXDGJrS+HPIT5ktMVznVwDwg9jfmr0LckPzZjW1uxDiaK1pp/Ug0UX5iDgk8AOMnquyGEYFP4r5kTjyyRni4+e2OzDGfViwM7BwiUDAC8CfcNob0xB8Nxn1/V2iagK/wb8ReBfM6bFlnbUfHuc3A0wWeZI0MdkuoD1jho2CN9lOCZI5wkqlx3d1ezDGtWS4RcxdtnmgmsqSOlmkBxv2EdQkFi/i1oggaBg2AeS46V0swuuqWC72YcXjWHTT+wmzdyRBD6B+aSgi/W9rutq94FegDgpgbeMW72aPU/qafahjWoxYA/DoqUVpFCwfZjNDA3jiUUgmxm2D5NCYdHSSrMPLxqj9jqxh3KSYSVvAz6F1DGc8oSeDxw30DVhO8V2yLDEgD0MtnHgFbYPkdw2vB4mIbnN9iH1Mpt9eNEYFTDFkE4FPmlp0+H3mxrMLhYHFbPB9K3Hr2z2IY5aMWAP0bw7Aps/UgHxfmC7fIYDBLAd4v2bP1Jh3h2h2YcZjUUSSHta7J7PIJdAFITfW01LLw5J2uwjHLViwB6iTZZXeGSL4lZIr1Otty4XQkJ63SNbFLfaZHnsFolG1pu+1cvApCQF3orJLYm6NgivlxpeExLxluNXN/tQR6UYsIeoPv7yYuHt8y/b29fKjqKRVRw0Hau8leCl9Rym3Bg6EK9K7GJI49U9FIVmV2DUsgA2ASbnmhwpwJpcLzuKRlYw4CnAJjk+ONYYkLa16MDEx8chiAF7qGrX8gQg/8RS0VUvO4pGVL1N3QV05t0GrsV/T8YUm32co1UM2MPTyPMXP5to5NWiahWo1qfi5qZeXBkcR9OHKAaFKIrWUi2ddBWw2nrOGegbWDYgHkUq59w9PmbEQccoitYyxoSHDA/lPiwog3X7Lg919ckxtW8oYsCOomit9nHdhNC2UtI12Fle5dqAeRh83dItevwf9w9r8uSYFQN2FEVr/e6zW5OkVYz+z9KDuRTqWte4past3QDiuDNiWt9QxIAdRdGTyCD7Rpnz81shwSsFPxEsuzSu2DdkMWBHUfQk5a4AGeUgzwH/ZfglumrzU/DviGvkDEsM2FEUPckVn5lAFsq0dXXeJjgW/M+hh1nb0v8Bp6JCf1aOy6sORwzYURT9m8u/tgmhfwXFjsFL65sXLIH1HISsDTBi0290jsQRpZDd19vRzuXHb9nsQxvVYsCOouhp/eHLU8jKE9zX88BixMFGZxgefsYX1Jvhlm1xI3BcQEdQze76/VcmcfURcaBxuOLEmSiKntEfjywBsOdJPTcbfSnBCzFvN94LtJ1EAUgMGWJA+EbBHw2/E7otherir8S9HPMSA3YURc/p0qO72PcH7r35b/cu3ma7KX+u7V/K5oLNgHHACsQjNo8J9wlni4+Jy+HkLQbsKIrWy6JP1ro0/gkV4PH6zz+aXa+xJPZhR1EUjRIxYEdRFI0SMWBHURSNEjFgR1EUjRIxYEdRFI0SMWBHURSNEjFgR1EUjRIxYEdRFI0SceJMtNbFt5k7bl/BFlt1doWqtgYmKaFEoA9rheBBYGDf3eOm13nY6+Q+gDYctrQ9GehCVG2tdMJDg5t1riot7/flXxzX7KqutcfJq8F0yXqh0BaI2uLWpsf4Yct3IHouOyrOcmyEGLDHuF/+tY+srZ2sUkm7V1desvnmXe9yxuuA7YBJmBLQh7wiwL+AyxZeU764kJTvz1zwvtPam30Io8r0E3oAZLypQ/ZWpOnAS4BNgC5qO5avlHmg/ZHeq8G/ffNJK26qlqi09Sc0Y12O6Sf1YZNI2VSsGbV1RHgpsEW9zgA9wMNCt8i6ZPpJ3QvtdJlEWHx063zhjHZx+awhWrikDDATmN+gtzgUWDBjWqmhx3HB1QMAWyMdDPqIxHY2JWnN0mtgCTACbPUL/91wOmgReOV+u7U1tI4biz1P6APRicK7sD8h2BXRWdtMXGs3Eheur3ynquUHMT93ojkvvPahO/++5/O5+pMj94Qz/aReqolLaWBvwafBu2J1rI0cT1T6iX+X+0FLDd/NEn5TCCovPrqz2ad/oxAD9hCN9oB9wZIBJpXbWFks7yw43vAupHT9LgiD6UM603BqUg33V7uKHPDKuBP203ndMY/RMW4cxpvKfMrmvwQTrfW7AW1b0p8Mx/aV267oKJZ92TGND4B7ndANMD6IjyF9XrDphrze8Bj2fyfmdKD7kmPHN7zOG7s46DhGiYSVxeorQacjvUfrHaxrr0Yah5kt+AbFZPNkoNrsQ2pZ7e3thJBNJPhY4HOSJ7KewRoASdhvxpw+rjj4+oTGb7O1x0ndVBPag/iY4NgNDdYAgk0FxwbxsWpC+x4ndTe83hu7GLDHoPOuLpMFtgGfKHgtQ33SEiXMgQ58PlHStWhppdmH1nLeevxKCqFaEjocmI3dsaGnW9S7peSXS5yC2HH6SY3bamv6ib109XQptd6L9Hmkoe+aK3UhfT613tvV06XpJ/Y2rN5jQQzYY8zCqwZpqzhN5A8B7xhup5jlFPHRYO+VVALn/D0G7TVe+7UBnBbIkuLuQocj2tBQvxvr/dz2G4GZktobFrRt+sf1bmH4NENoWT+NTQ2f7h/Xu0XchHd4YsAenob0A9S3xKvkfWmft3QAJ6LSph1qA4wedgd5PYhsKjg4K2jquP54Q67RkWZkTroMH0E8P48BI0kCPuDgnSGw5wn9+VdcYLG/YBfl0P2i2oD1Lhb7x1Gz4YkBe4jqQbUbyPUZr5YxQK9Mr3KOfYkT+qcWBfwHYse8xpxVe2jfE3tHCxbWMk/GtD2/liEZ4ecL3uE1n2wObLYyvDNkaYrWb1/c9TX9xB4E44G3WLTlU2dRK4u3CMZPPzHunD5UMWAPkQwyy4GV5DoIZICViMfzbo20TRLjlleKMm+Tc/zsBbbGG73JIUmseFmp0E81DIK8q8WWOX+UAqanRXcU23I+17XW9UsQO+bafWGD2LFedjRE8c4aqlqn4u3AHXmGa1kY32H5n865iV1dmSG7C/zS3DsuhBCvlkIh3pD1+KS2gs3O4DTvDFqJbRzYOquEfOtd+9nSsJlyrHM9z3yzetnREMWAPURBRXrbiw8aluR5Mxoss2TTTe5+qJCU861zluCgKaD2IY59PaNaP6U3F1Ye/Z6jniCpfYltnnuwxhjaDFNDzqe6/uQ4QWZ8rtUWyIyvlx0NUQzYQ7T/rmLcQMXAueB7cusWEfda+tljj7/A73tNvhMNnAon6rBI8+3GqVUc1AnakAzjjVetqSpMZ/7fX0KQCjpyP9O1J8d2RP6zoERaLzsaohiwh0E2CtmNMmfjPDJGXJV9toJvUgPSnxQy5Gyl7EqDgupy8v8mGJ1qTVUjL8/7aca18irgVfFpZmyJAXsYCmVwklSoTb1dVHtSHaLaaxcBp7tApVDOt28SoB9RRSsMqxtxnxvut5T3U/roZCALAXO/3YBvX7sP80iM12NLDNjD8N43tqHlK0DJg6CvAL/2UIbWazf0r7G+gpMHt9r8Id77xo7c69shUUD9QlfnfzYcZF85SKHSiKeDUSeAimkGXCXIdTBCNhb/yEo8snKbeAuPJfHTHqYZb9+CGbsVQdxqcYTQHMyKWsyqj7n/m9p/r//NCktzgM9kCbfO2L3I67Z5fkPq6iRAllQt/wF5MOfiHwCWtLlC4jjb8dKvdEEwgpsRt+b6FSYywcWlaqU88YH8n8Si1hUDdl6KRVKFu5Tqc8BHBL8yutsocz04m1pj2laGdbfMIuDDSaLPFYvh7qobu2xmVurHaQD4i+HynB+nFxrfLsw+uw996YmNRy0pLk19L3Aedj6zYmsrr15v6aIsK3pwYlwhcSyJGxjkZMbOtZGg3/3VfY909PzvpHLbnzLzSsOrErEt9lRqd/Ey4F7gb4m5aWVxcPXm/V2883WNX+P4wJ0m84ulfXSGtocHVT3T8q6yNhn2eiLmFtA5oP5Gr989mlxy9Himn9SdAb+UeI/Na4c1AFlL7u4DnTVQ6LmrjXFc+cm4OcBYEgN2zt75urV35Oo/3Hrnlffc/oIrN92ynGaBdgGFlMG9P12sLj37QXZ9wdYjXr/37zqO864fBPybpKqdwF8ADenbot6p8zjSKSHjuryzITYGXZPaueHKh25/0csmnyAxB9hmyIXVBnTPxuFn7eVxvvSYuA3XWBMDdgO9dcft1/zPjKesObLrC5pXrwNe3cYFS8p9qfWtgKcAH8aM25CWtjGyHkOcSuJfplKYsWtsXT/Vrz9RZPpJPSTSxcE+1nC8YFs2dG0RU7a8COkEWSsXHxM3AxiLYh/2GKX+IkFhOXAU5hSLR7BZnyQXmwy4zfJnhU5XSAZjsH5mi4/uompXAz4X8wmbG0BV+9mT1o3XfCTLwd+XfUSpnD5QLcRB3bEqBuwxasZ/iBnT2rBYbvEN8PstnWPpbkOoj5CuTXSpBRYP2v4H+Pug/ZzysypZ377T4i7qz+Wyo7voHUgGFx/d+RvwfpivS/xNuM9PSiZ6YoBa1gOSFwo+bOtYnDz0+6928Kcvb9Lsw4maJHaJjHH71QYJy+ddW7kcuF7Br0zMa+rLr25h3A6slnkIcTOwNGThVmDwgGn554pvzJac0IlOgLcfu/pO8Neq7cm5hl0kXmm8lazJlsrCj2DdDlwnfAPyisWxvzoiBuyo7oBdigCrf7WkfKXwXzOpDWgHUqCSOAzcfG/74FEzvof06WZXd1T7/QkToLb5xT/2Orn3H0DJDu2gEigID6TVbAAIF391YrOrG7WQGLCjJ9mn1uIOQH/950mObnYFNzKXHNUJtZmQ+S7NGG2UYh92FEXRKBEDdhRF0SgRu0Qa6JdLygSskpMkkRQS2wpByDNeE9PgoijaMDFg52zhkjLYQtrUsF2KXor8vIAnEBgQehi45YJryndKfhBUidO5oyhaHzFg5+Qv/6xw57IM5CmG9wD7C6bZ3gytO2nbNupD3Ai6yOLcI+1/bX9f5lnPix9HFEXPLPZh5+AX15f550BBHYV0V5szge/Lfg/25tJTV9iQhDuFXwf+isy505aUP7TJA5W2C67pa/ahRFHUwmLAHqbzrx4kGXQ6frDyDuQfyXqvrPG1rQ2faa2I2sZ5RilmF+B7StPPpEmx61fXxmnHURQ9vfgMPgyLlvZTqZQoFMqvtflvyS9jA5asU/0PW5Mljg4OPSHN5l5w7UBlv13am3140QhZ8NK/wJNXgvLMW17f7GpFLSgG7GFwSCgkla0wJ0q8bKjlSGAzHnGkqoV/lgh/+OXSMgeO8IJKv7yml5KL44K8TX3QdBPscYiVoJWyH07K2YOhvVSZsWtrXDofm7eSxNWkqnGTg9gWMRlTW2xDLMesSMx9BfetCCqE02dNanaVAZh+Sh8K1U6j551jbYHYXPYkSysxj0xX98PC9zop9C4+Mq55HdW0xl03Cv3yL4Ef/Y900BGVDyC9foOXy3wKCYy2Bj5RCenVBXn1SBzHH/9eZkV3oFRQZwZvC+IdmN2BF4k1S67KhlXALaGU/sUh+/V5S8pXA+UUaEaWy8yzuimXysr62p6XJcUZwH8ArwG2RGuv6yrwkMV1FXX8CScLP/zTx+8tlUtecPDIL0/6lpN6CCEgGOcsvNVK9ga/rn6uS1C7glyb9fgvk/yVLPxmrxNW/8HQlyQJfzw67uYzlsUl54fogmvKAC8CzpZ4bT6lGqyVwEeBX8/YrbGB8PwlZWzSVLwK/Hng7UabPNNFUf9Ksu37JZ2nhO90VYv33TtuNTNfOXJrXsw+s48007hqEvYHPi7r1RYlPe2XpjFCtfWkrwdOK4Tk/Cx139xDRq7l+pZTe0hSksqgd5T5MuhdFlOw0dN0o7m2uwwyj4N/a/H1YptuDRnhj19qXNCeflIPwExgfoPe4lBgweL4xTMkcdBxCP73RmMHJF4t+RXktjmiACYZ3rYqKya/uLpxu4+fv2QAyNJEfo/hLNAHbG2iZ3nLeliR0LbAZ0LwvNWq7FJ6cILOv3pkBksPO7MfWVMy+cuC7wO7I0pat4ZPqXV9rKAE7C74fiZ/WdaUw87sX/83HobpJ/WQlUmqg+yp2rn+MPIU8fTBunaShTDIU0AfFpxVHWTPrExSD6rRGBQD9hBUymWKJRXAO9vqyv1BRbxifKGyeZo0Jgj+fIlpo4JI9gT+W7AT1JNa1udQas/tiay3A//TuUl5B6lxXy5rzJ7fhzN3Gn8a8QXDBG3Aua+HwAm11/rTztw5e/7IpFJKfg32t7B2Wzva/Jx1r/+OAGs37G9Jfs2IVDhqSTFgD0EwVKt0GJ6Xf5+SAaYKNmtUf1WRCmXaXgE6SehFQypkTSyR3wT6agKbLrqmcQvOzZrfT6CQWHwA8ynj9g0J1k9UWxi3Yz5l8YFAIZk1v3Et7XpreFukEwyvGvJ3u6D2ep0AbBtb2WNTDNhDUdsSpISZkvsoQG30sRMzPreelnWcf02ZLNCOOVgwLYcKA+wd5H3SniLnX9uo4GdEdXvgU4aJQwnWT9RYGCYCn6qV2Zing+kn9kKlPcEcCN5Tw9yluPZ674k5kEp7Mv3E3mGV9yxCowpucNkbvRiwh0C1fyxUzf9WN9Qu6izvks+7epBEkNb63d9PXn05phP4cGVCeWuF/C+pWWcMUtikG+CDkl+ax+7stXlNfinwwcIm3cw6YzDXOh/w+UdARoX+7YAPGdryKLdezodU6N8OufY+OapvT9ZjGMj3i8wYBuplR0MUA/ZQ1LoDyohleXfd1pMDuiVW5xGY1pUIgrME2Etiq1zPB5qG9crEgfOXVPM9J2lG5fHxWwJ7km8qagHYs/L4+C2d5vv9+PjEcVjCsDP4FcN5IlhXrRy/wrCzJR6fmG+mS72na6VglXN8fHSt5qvqZUdDFAP2UDijkK3uw74j97Jrj72PyOFhrccO5hsiq6aItAiazoZMyVw/bcCbsyRNlfNTbyKTyC8V3iH/IOIdEvmlSc7fvE4EuGDpzZZy3aXYUtHSm8GF2vvkpx6w7wbuJc/rr1bWvYK7Y8Aeuhiwh6AQylTSCcHSdRbLcr6wA2ZpmcLjBeXb6ksSY2sisF0DTouwd1Rwmuf5mPlDr2nBbwXavAHV3hy0Faq/V24nA2QSwQtzH+ao/bywXn6uiqFEZ7XzTswNuY7P1DKLbuisdt5ZDHE54aGKAXsI3vvaibUGaqLrgevzLFvwGPh3RTL2npbv426SmESeIpH7QiUCJG0uKRnu4Nq6Su0DVGvzYSZbpLnHEJEiJldde6/c1DqDE0wDvmQAs3m9/FxddGyJnrQnA59fm7STj/oEoPN70p7somNjwB6qGLCHKJ1YwN3VhzE/MerJZ4DGWPwKvNSNyGuuFZli5MZkRqS5l5iYkK2td8POSchq75WbWjNYiMZMpxTj6uU35JTY/rPRr/J4WLKhVpb/HAcchycG7CHa58VCXSku6EKJRcNPuDBGfwOdbmtAaa7dnsDaR+nlwGCDViVYRs5pW5MeKVEoAmZlQ6pce1RfWSjW3isCZxkqpP3gb0v+S/2/DqUkAGpl+NsqpP3Ock9+GlNiwB6GREA5dBufZPuSobcejM29mOMqKt7kJGXGa/JvrLpUwIlWIpblHfvq6WB3hdq8otyc8uUCMlh+jNqXTd6WW35Mrr1XBJcdNwm5QnlZ1z8wR2PfNLQveIF9E+bo8rKuf8gVLjtuUrMPb1SLAXsY9t2lhAmkheJtwGeEfw3eoIBljK1bkI7A/t9StRL2n5Z/6xqAShWCB23+lHMCCoIKcHnBWb45fdR7FqRbBLfnnbgguL1WdsxdWNclR01iYtdKNnt09eWgmTa/tz24Pqe/3qUyaPN70MzNHl19+cSulVxy1KRmH9aoFwP2MB3w2g72eXVCFvg78EnMN2TfX1t5D+oTBtb5Wbf32L1CvwAODVX9yiTZjNc27rHcEiJkEn+UWJ3rtAhzu831gYR7881iI0lEIU3uAZY04LQsKaTJPUnu+Raj329PnMzKSZ1eMa5tCfZhQsfI3OzasrXAE9f1Ov9elblZ6Bjsw1aMa1uyclKnf3vi5GYfzkYhXqU5WnR1GaA9JN5J8P9AbzJsLdMBtCFXQAPUHu2vA58vuMywYsa0XCbCPaeFS8ogJmFOw3wgh653kKu2vjaYFU8pJtXsgN3zf0KYtaAPYDfgfMG2eZRpuA/YH7hm3sx8xwbra310UPuSeXnuJwRupra0QP9ILFW61wk9pFXSasnbGe0qMx35JZhJAIiVWLdZLBZeWijrnqxAdsmxcRnVPMVOuxztu3uJhdeWB0JBSwoVlobazicvBzYDJgF9wOPAP4F7gczII7kBwJ07pLz45urKalFzwK8FvWBYMbu2KNGVyOe2FcrZfg364pEM4noCZ4GOBIb7rVARPouE6xu0lMhGpR54s+kn+U6R3YUGLjBK0hDaAbI0GZAIoj1A6ou/FtuCjRADds5m7FKCJ54UlwGXN7tO6/r8xJSFV5Wh6itJOQX8DWDS0B62jNGdguNNcsd+jep7B9qTKn3VYiWRTwfvgPX+ISe1GSNfAJweMlXGFeLGx+tr8dGC2rWd1X/iyRtBsQ97DJrx2hIUVJU4G3SCrYc3NG2rNrDEP8Cfr6pwWYPyutf63kETSWaOA/Mw5hjkXxpXN+htDcZV5F9ijsE8nMwcx/cOGrndcqJoOGLAHqP2m1YiIx0ITk5DfNpwnSFzfaD030aTWDuGCnZZcJFgdhgcuDCpDIT9R6BbZ65g7qGdEJI7jI8Avo145Im6Pl30XudYxCPAt42PICR3zD20k7nxyT0aRWLAHsMOmFagXBwcGEgHzwMdAHxV8hLQY4iq5bVZLYay7AeAS4GPyz6IYukvhbaOsP/rOke03nNndyAlDyG+Cj4AcTbyP0Hd//7b6kb+J+Ls+u9+VUoemju7o9mnP4o2WGxfREA9ewQnElNt7Wq8g9BmmHZDN+IR2X8PJNcXMnqQvU8DUxDXx+ELBuhhkDYXSql4AWiazXbgSbXf0EqJe8BLMnPXoKrlLto4Y2buS6n8m40tSyRqDXHQMQKgnqkSgEeB3974M/+WJ77QvdMHW++7fZ3AWwZuq/9E0UYrBuzoadUDdEx4i6IWEvuwoyiKRokYsKMoikaJ2CXSADc8bn70o9W8+U2dInOH0zAZabJMj8WKjLTngO2T7PI74c3TWq9vOIqezn98vYdyNqjxbV1pVq68wMEvRpqC6UCslv2I0D86s7bHnjdQCP/o6iUOiOYrRoscLVz+MPr15vhllU2A3RBvwUwDT0TqoDY41oe5FfFH4z+3JdV7yyENM6Y1PnMhGjkbW5bInif3AEzC7AUcIHil7alI4zBFxIDsHtCDwF/BPw3WjcDAZXE9kdzEgJ2T85eUwbRJfrvQTMxeiHGur5EHa+ZurFUG/wOYn1nnt5f8yP/9ucQZ/xU/ko3BxhKw9zi5F4s0CX6d4NOGdwKd+CnbOBtc/3cBth8A/RRxWird88ejRjZXf2MV+7BzcP61VVAyUfA5rLng9yI6Aa273MVTQnEJtLPRNxP4TrmSvPitu/U3+1CiaK23HN9DmoU0Cd4XmIe9v6Cztn/nU35Za3c0qv2rtDXy57G/nwXvNP3kVUw/vq/ZhzTqxYA9TBdcM4Cq1Uly9lXEsYLNN+TBRdAh8f+E5yZKX7romsFmH1IUsdcpPWgCiaX3ynwLvCMbuLmyUCLYW/BtsnTHrGDecvzqZh/aqBYHHYfhgmvKAAXEbOFZQPvQO5n8ZqOvgT618JrKwzN2a9zKd89k4ZIMkkFRTTqMtlHCpkAn0OvAY8L3Uwj9hDbPmJb/FmbDcfDPyiQrg1SyEgUBBCd2WQ6TEp/1wbhf4/p663HdVATu8U5IX8U8b8g78kjUugd9NA6fyFLFiD0MMWAPR+0afi3wX1idwxwRkMX7cLjaWfjOBVcPZvvtPoKbGkDBrr6ELH2nxNuA5wHjqK07XUH0ge51ll4M1d8tXFK+DaiO5FreTzW7tqmBbE9Sf3U7l9gd2AGYCiC8TCX/M+0PV8+a33uPpJWA5+a8WcHGploSZO4w+hhmpw1sWP87gc0+ifX7PpXP2fvECr85ZuQbJBuDGLCH6IIlg0DoAs0EbTP84VsBLglmJkn6G4t/jsRxLLpmENtbAh8BDgFehJTUBo7WbCq+ts/yJdh7AbOwzwR+suiawYf23W1kvljWddiCfjATLe8p6aPAG4HJiGRtbYUxAVgh6Qrgx7IuPWxB/6o5M+PiT8/MCHZF3kfOaRBc6pL9ka5QuqSXgYeafYSjVezDHioLnLwS6z+U0wzu+mPn9pbf2ehZ4ef/tcyFfxsgoB1B3wKdIGkHSWuvCdVHkdZtYUlKJO0AOgH0rYB2vPBvA5z/13JD67uuQ85cTQhsF/CpwHzjfYCpEqnWGUAQSCIFptZ/Z37Ap4bAdoecGZ/Mn85bv9JNqDXj3glsmlceWf2L/9UWO1tir68+2uxDHZViwB6C866uUChUAV6DeEGuhYs2wxtd1bgLGhgEVTDVweSFiO9ZvB9t4JZbolh/3feqg8kLVWj8siNfOPIWZp5TpeD0lZLnUWvpT1mfVqAssKcAsyTPKzh95cxzqnzhyFsaXu/RJCuJQllTZXYh57RfSVMNu2SV3iQU4ryDoYgBewjSxGSh0CHxMtnK97oWoOdTYGsaNK63aEmZxJosOBLzFg3xOhAk9dcfmViTFy1p3BfMl75RZvkO21LoH9wWczLirRIJWs/TX89Fq72Gt2JOLvQPbrt8h2350jdG7umg5QmcsjnS5rk/5NUmImyflsaN29CMk6gmBuwhqC/s32a8QSl861V2rf9wgmBSIy7p3ywdYCAkIL8HcQDD7aSUVS/nPQMh4TdLBxpQa1ixSYWkSpvFEUjvHHaB0jstjkiqtK3YJG5LuIYxticYjx9yZsgzEWBtilUir77xMSYG7CGQQSYVdOV/TQvk9vpP7nWvBNGmbEubg4EJw70p66+fYHNwm7ItK6ExN6IRKNnd6IOQy7NHavTBepkNqXNd1qByqzRqoKPW79+g2ODUtuLKvUMTA/aQCFAVtDr3C6+2BWF//SdX5181AIkwvNxo93yrrd0NLydR7X1yNGvOKlzpLwAflNg8r3LrZX3Qlf7CrDmrcq1zfSPJAF6ec8FrrKBRUc90Az2NKFrweCKXY/t6aGLAHhIDHgQeyr9LBAQrJZbn3c2nJCGEJAXtgcg3r010gPYIIUmV5HxZpQVUbH8heNd8Cwbwriq2v5A07wxXAQr1xZAa4UFqOwTlW+sACn5U5vHcey1qF/c9Kqg/Rp6hiadtKGwgGcD+O7k+8q5pMOnOovRAmnvEBimkiJeR/8JfQrysXn6+BUvUUw5fmHOdkfTCetm5lmsgkFYN19r5BlZDMCzNoJp3EzurBgaWlx823JR7vBY9hhuoJtWBNK6bMxQxYA/BjN3agQDievC/8nswFUC/zeXljMH37ZLvLEJhhBPhzfOP1lAr10leeekAB/58NQpgvClmUs7VBjPJeFOF2nvlpVpISF01cIXECucbWVcAVxaCXS3kewtf/rWJtE1tM+IPxitzLdz8Hev6gPnLlzbLteixIgbsoRKQ+O/AH3N9dJRvsfy7Rgw4rs1tQxMadFImsN55dutnwuoEtSVgJjZkbLA2o2Oi2hImrM7vdvjzl8ZhgeTbwL/Ltc72/2HfGlR7n7yZhKD0MtBleZUIlAXnXbrrKXeMz2IO9lDFgD1EM3Ztg6ABxJngO4fdgqq9fkBmbppV7mtIvH5Co8Z8GlBuiVCtAKrn3uV5YtZ2QVVq75HvE02vTOJkldFPEPeTw0ViuB90jtJkddbfmASUJIGkUl0tOA14YHjnfO1C2Vc68bl7Xvdlfn1cXBFjqGLAHgYDQeEG4BTk5UO+Hw3IGfgnln7ptOQZTVifoxWVykXsFGC5TTXv8utlLrdTSuV8FyS6+qgJDJZSqm2Fy4DvGQ2j49Zg+jHfDS5cGqoJfzppUt6nA4DFR3aiQoLQZYaTzdBX2HNtoPFmzDFZWnwozb3XfWyJAXsY9pvWRuIkKPHPBf8jWL3BQbv2+8FwocXXSbyimSvgtZrTPqk1HTkPSDzsHPufbCHxsMQDqr9X3v78hXbSwUolBM9Bnmc8hHRNA+q3NM8Oc5OkUr3s2MYuXrX46C6quBLMj7FPwl6+IQ1tr6m1uAn8hSTNripmZf74lQb1xo0RMWAP04xd21BIemR9B/FFibvr+bfP+VoDFistzpD1GVl37bdLbFk/g38At+bat18r69Z62Q2TpYOk1mpCOA44nlpK3nNaE/RsPVh7nY8rqLB6oNCY2aRPdfnRXaRJ6CWE7yA+hbjWUH3Oa7s2saxb9q+Bg7d7weKLCoW+cMlRMVgPVwzYOdh3Wgkn9ChlAfg/bS0wevipv/eky9zulf178OGII51wX7OPo1VNeaidwfbqY9gXC3KbRy6oYF882F59bMpDjRsI+/OXp7L4K11YpZUm/ZbwTOxfAMvXzJRae3G41o1gG8Fy2T8XPsQh/RahsPKPx4zjr1/atLEnfB2Lj5pAmqblgvmZ4f0yx2P9Gfvfu0lq89ofNP418AmZg9Kqrr3nrr180Re2HLE6b8zihKOcXbCkTEDjU/sVwG7IrwVta5hMbRzqYeS/Ya4EbkxL2UOhmnjfXRs/cl7fqGBENobNu1vnsPm9YJ5n6QJEPhNozFLZ+yHunXPoyG0SO/2kHjCTkV9p80bQLoKtgPFAt+FB4aWCK5FuAlZcMgI7oz9nvU/oBSiCt0K8EHgxtdmi47GXufbkcGvtKbO4DDIvPjpuvpunGLAb5Fe14JgGUbIpUFv/IggyQXkCVPeaVhrREZjRHLBnz+unra9dg5397zd8V2JYibw2jwo+3dbb8YvBcQOeO2tkNzTY//TreOCBV9PevjqFtE1QECQ2IUC1QDa4um1Ctufdl3LqadNHtG7r4x0n9YCtaqoElKRVZ5MfxP0T8IWnNv/LZWMVA/YYMpoDNsCh8/oAOpT4iNrSsNrwxbdqGTk9hlMc9D9A//xZccuwaHSIfdjRqDF/1jhcCv0h9fcMxxk/sqFlGD9iOC6k/p5LIQbraFSJATsaVRZ8tIskS3oMPwAOs32RYXDdEd11x/DW/AfDoO2LgMMMP0iypGfBR+OjezS6xClH0agzr7breXnW/L4LDdfITAe/C7Ob0UTVdnrHUBFeBVyD9VujxYKH5sdd06NRKgbsaNSad+g4Zi/oe8hwrgIXGG8iaVvwFAChx7HvE1ruhHICYW4M1tEoFgN2NKrVA3AABqillTVq/ekoarrYhx1FUTRKxIAdRVE0SsQukShqoj1P7gEoYdqFi9jB1qAoDoKzxQ1e5CkaXWLAboBFV/aBQ+picUtLL0ZMBsYL+rFXW7rHhDvBg/tPizfkWPP2E/oAihVlL8bsArzKeGtgMqgfscxUbgOu3fPknr8Jli8+qjVSEG+3OeXsft19f9jSgW0RkzBtiB6Z5RJ3AqtbYSr9xijOdMzJe5aYWZSpoqLsVwP/D5hmtD1iItAhKGP3WLoffJPMr9OEix4I3T0v1BTePq2xH8don+k42r3r6OV03X+HHt1hx+0T62DwewwvEbRT31Oyvglzfa8DP4h0leAs7D8iBhYfPb4pda8/CbQDu2H2EbzG9tZIE+oBu1f2StAdwF/AFwTrTiC77NgYvPMSA3ZOFl1VJqRsB3xc9geAbSxJT9yC9ckcQnZtJy17NdLFwHcSkquMs32n5buI/rpiwG6evU7uBWhzCG8HvmbpFdTWD3kW9d1a5OVYPxJ8K2Tpg0mxwkgtVbrHyb1UE6mU+WXgjxkOAKZiEtUu6zWXd31jGSOo2NwOWoA4O5Ue++NRcRGoPMRBx2H64f1lfnfpIFnKTsD3gM9b2hat2Yd7zS2p+j+wpjWFNAG8PzAvOOzbVlZ60Z8bs+1T1DzTT+whVEPBwR9E+gGws54zWENtm3swbAL8l8W3VahsE8LI3LbvPLaHtC9TMQvTjRdQWzJ1M+FET1zW61a1foWrCHoZ4hTMN7Lg7aef2M30L8bdZoYrBuxhOH9JmS0eCvR2sYPwf2P2FiQb9tgijF8KfLO/GN7zWHtV59dawtFG4G3fMY9etRRSvd34eNvbrv3CXk9CIBfBB9g6BmeT9zxhVUPrvdfXe+jpAbcne2C+C969XhnW58G8vhVzSfgjgq9jbRsm9vG2rza23hu7OOg4DIkD4AmgY4G3buB9uFbthuT5wPGdcG8WdP2F1/bzvl3igOT6OvSbFhMHxisNm8keD2Cp21nyKKvau+d/ocHbGj+DrLeXzV+36w6GYy220ZB7IQWQgD8sJTe1KT1tr5N63IjBvbcdu5oyUJzilyCdKPPyIfeeSglmP+RHIftipaC+3Cs8hsSAPUT/u7SPPqekhPcA+yiHvQYFO4Fmp4mPyEI6MvtAjWKz5vUA7kDJzqj/7ZjdgE1BazpMe5X4MTbpv2bW/N7f43ADqH/erJEZBJt+Ug9AavtAYJcNbVk/LWkc5uABwu+SzHe+7rR+/vrxfL/YK20JVCkazcS8ftjVFonNB+XkDxlcuPREs+sxcfhsKGLAHqIyKQWFLTAHmSGsy/zMZgA/A/7c7GNsVYcu6CdYqRR2Ah9qsx8wVXKKxZrvTtXWvsbobcDhSpILQPMPmT9wYyJn82c27gnmZ4eYefSAtR3S/l6vPuvnVh/f2xn7HQFOb1/egG3IZRA7YX0gv+cSTRY+pGiu+BI9j+de5zEi9mEPwcLLy9RGg/Rq0Kvzfdj2VON3dHVnfO/B0OxDbTkH/WSAaoE0VXiP4UfAxyVtLkjXjHzVBr+e+EOQStoc+LjhR6nCe6oF0oN+0riHmAUv6sUBEC8Hdsy3PelU8LYSKm1ZzbfN9e7PraydQ/Nu8JZ5NUTqrfTdLF4dBO864tpc6z1WxIA9FB2GASfYrwGm5lx6gtm1uyudsvX91WYfaUs5dF4f9DkpVcL+wt+l1oW0ASUIYCfh75YqYX/6nNR3scmdg0lFir07kGuOY70f/GUVefOH03yvkYFJBZJMk1TrXkpzLVzawvDqxUd30b/Ji3IteqyIAXsoJGjXOKQXYueaze7a7bh5grcQMQ1qjcPn9lMtZpQKfr3hq8B2Qznt9ddsZ/hqqeDXV4sZh8/tb0CNhVEC2raWmpwvS+OcsLlzvoOdgBNthbR17pdfLWd7h+kn93SSxNAzFPGsDZUpAVPzvqbrfZTjA0yI4foJWcGkTscDR0jacXjfkqJWBkekTsdnhQacaYFqifeTGzE9TVAUmjj0rJOnZ4wJE4zH5112vYtqU1Apztkbmhiwh6B2UVvGhdwv6lorJEGkDbqmDfQ06NT0QGMeC2RIA+9CvDWftzCIt6aBdzUq4c+1R6TehpQNmaG/QVUv0qiEBLvNwUl97n20gWLAHgIbbMqYxxsUVHuB7gbUHHAAP9qgM/NovfxcS519Zj9KkjZgb0x+i2nUytpbSdI2+8x8u0VscMA2G7xR8HOqTQEftP2YGxP4emjQF41gRSJXYvt6aGLAHgJJOEn7ke5rUEthGfix/BurAikD3d6gM3N7vfx8i7VxCC8CXvHE4hU5nIva+X2FQ3hR3p+jBA79VYkbgNzXGxC6ryg92J7zuVYABZbJLM9hasGT2IB0v9JkIJec9DEoBuwhKHUVUJZVBddZ6sk3rhrgphU7tj2Utee7EFRIRFIJmeEyw2DOtR40XJZUQhY2cHL+c5dtjJ8HbJ3vl4EAtjZ+nnP+ciyO60BJO8BS4KFcC6+dkkuD6c97EYOQmWyg+qDhlrxDqkS/8fVUk3I5zgsbkhiwh2Dvlyb1xfZ8g+ybc27krJL54ya3lH3gK/PNqup5RYEsTcDciLkxrxBVWwm0VmaWJvS8It/uT1nImoiZkHu8NhNkTcxjpuq6fn9EChIWdxt+l9fTkg2GBxG/zRJnac71vuyrE0jGFTLEYnCuYx02t2H9LShwxZfzzoYdG2LAHqKOFGZMa7sD6ZdAOb8JYbqUoEvJ+3kUOKhNZE7Zb7fivcDZ2Pk0c2rlnL3fbsV7M6cc1NaA7AIxDuWbz1wvu1QvO3dZKUXBPYKzQXcNt7+53hlkwblB+psQfzg2/2VLTYKVXGz019wGeKEqWDSx2nlrmxu3hPDGLgbsIXrXLm0sXFq24eeuLdg+vAJrLacHDKeb6moKjfloDtw9ZdGSshP5AsHF9YXyh1zpehr6xYl8waIlZR+4e75PBetoZKdnQ8r+0xc6KIQChSy9ynAG0sBwrhLZgK8Qnp86DFzaoF1oJEgGKsuB00GPD//aFuDrSXzO6mJPuOjYtobUeyyIAXsYlELoDw8Cx2L9Y1j9oPJq7FONLiUtMGOXxi3zsu+0NoweNMlxEtetMwC3AWrtPYnrTHKc0YP7Tos34lNd/JUOKkm1YpiDmScPJRWv3osPNxuONLrtkgbuPHPpUZ3QVkDoIsN3jIaRQmMQ92Ad193VdafiagvDEgP2MMx4TYliqUSpv/gXiS8I3TSUbAPD40an4LBAWaWy3wjs1iLMlI7lfwM+ZXN5rbG8fnV37XHANpcDn5rSsfxvcVbmM6tIpGaVzPGIbwpW1RrL6/Pq+gpW6DKLw8vSX0Yi5i0+uouA+21+gP197N4N/Yjrv343+Cgl/sP47h4uObY5W5xtLGLAHqZ9Xpuw938o9Jcqv8U+1PB/4N5aT8MzXeG1aGdTBf8NOKIq/gelffu9dtyI1HvfaW3c0b2Zt2kbuFJilsUc0GNg1+v2REDxmtxz1w9Kj1nMkZi1TdvAlXd0b+bYun5mVxzdxSXHdKGCl5H4G4ZDEZdb7q19Sa5zsp90ybhq6x7DqZIOHUgKV0wEXzZCG9xednQXSRpWYp+IOBZxl/+9kv+udjhl2X8FDkuS6i8gqzZrP8qNSUyGzMn5SwaoElQkmYz1bsH/Q3q57W0lJbV2qdZssPq4xG3AxbZ/opR7sbIZu478PogLlw7QP9hGqVTtSPFrgQOB1wDPM0wStBsGBCuBe4HrgF9m6KpyudDf0TbIjF3bG1rH2Qv6AGYC8xv0FocCC+bObPyX5R4n9eJQkJLBTYX2At4C2gEzRbgDqWrcDTwguMrm/+zizYXgSqVgLj96ZL7Q17XXST1gF4L0SplDgTcbvwipbU2KEFJtOVu80ugfgkWyfz7YpgdKFbw47qKeixiwc/abq/rY4YHb9Y9td5xs6WXgF2O2MhovGLD8KOhuwd+LafWBYGWtsrPMwiUVbFLJzwe/wGiyamsT9guvqGU66G6JbEYDNwt+qo0pYK/rzSetBiiKZAuZTYXHIVWMV4MfuPvx8au3n7qKS46aNKL1eibTT+gFaAfvgNgJ2AExFRiP/bjhYeBmib9D4R4IYfHRcfPdPMWA3WALr8gwJC46LZlQTsj23y3uG7EhNtaAPVq97zM9THwAPfxyJ1lJJaCg4HI5yyovGBwffnxywzKFxrwYORpsxhtTgFD/iaJR78LvdAGY88iAJ2WQ/KnZldvIxUHHKIqiUSIG7CiKolEiBuwoiqJRIgbsKIqiUSIG7CiKolEiBuwoiqJRIgbsKIqiUSLmYUdrLbyiG9rbi84Yj7yF8OZAB2h1sB8OJI8WEvdWSbMDp8XJEcMx/ZQVuNKeJsWsgyxMNdrKYhIwKPMo0kMirB6gvXzl0SO/ZEHUmmLAHuMuuM64OghKOrB3w34nCdMx2wFFpASTSQyk+Dab3xfIfr9oyeDNoMq+I7Cy4MZkrxNWI7uQhfRFJNnbHXgH6BXAuNqCvQ5AFfyQ0eISgxftcdKqvxRDoXswrfCnFpmmHjXHmA/YC/9RhmVAFyIj4cndRKY+S3HGRhiYFl5bJhmsEArJjoaPWTpAsKWgtrVJfbEqBEIYtgL2wBwU0E8kFixcWn60GYtWjUZ7ndIH9sQQwkdkDrF4JTh1fUPa2mboWrNgxKbATuAPi+TCkPiH/3H4xOu7ugb82081drGtZph9Vl/tFAQl2El9QSmjxAQCwnNnbnzHvaHG7FoiF/61zGBbQqHqcSS8EPs/wLuBXgB0UAvU9wE3AJeB/75v+OKqK5Oj/cZpmzW7+sN23pJBBrOgjjR5s9AJtt8grd9W1vWtqiq2zwe+1p9lt3UWCjSqtT3a1xLZ6+s9VAYz0mKyLeYooY8Yj1snTD+72kKPN4C/amX/Kydh8dETGnQqRtbseX0A4xHbI95seJXMC6itXLgSeAC4SvhqB/+rMG5cf/8jj3DWZ7dsdtWbYky2sH++1PRC0lat7AIcjHkfePPaI+mT7Absa+gR/GGRvnF2CPx+4ZKBgRnTRve3fQKMS5I3AKcbdlzPWA2sDTFF4AOSNhlXKHzM9l3NPqZW5QyKabKZzTdcW7420Qa0lSwk82rgBzgNSP/b7GMartln9mBRIPj1mINA7wKmCtK1j3VPOKi28bB+VR0YOGfy1lss/fTPHL77wbHX3hxTR3zhTYFsoAKJ2gl8EPM545fp3y+Qf1NfuP0RrB9jvqd2HqSMR2NXyQVLygAvAubITB/mVWBgLvKXgFUzds1/I4PR3MJ+y9dWALSHtPgV4AtoGI0kg8W1iFmC65d5kBuPntKgU9IYH5uzmlXtnXSWB6ZIzEbMqj/VPtehr7lM/2Hz3zbnQhhIkg7mzhw7A+BjKq0v9FXAtDvwCeBbyC9DtS25n0vtt7S54HMSZ1LmTcmEghbdWGn2YW2QRdeWSYuUBAcBewz7K9uW4f9h7V1Oza+uHl3no5He9o1eKqRkaWG68cHDCtaw5jLdBftwgrumNmAT+UY67Mw+1FlUV3VgF4kzQF/Fzx2snzh0MH4Z+DsS/2WrPcuGsd3kKDRmAvavb8iYuk1JSPtjjjKeBBvyYFonUsTbgPnZ6urMUHbX+dcOcuGSrNmH+NznYEkgC4FQ4aXgD8o5fP61x5OJmA+XKskWQXFvxzWyqikUk4mSPgRskVe5Qvsi7eIAe53c0+zDfE6zT+5j5oJ+qpnaq4M+ALQAaX+L0obegEJImgA+Mkn4QFomnT2nt9mHOGLGRMA+/6pBqpWMxx6o7AR8UWKTYfcF2S8Gf0vm1ELG86ujYLnrqquk1aIwe2Jtl1eHmACLNxpeZgUWXlNt9qE23Rv/ux8HE8z21LYBy6XceimbAu9OEqVD2PN55G0KKWGrROEr4B8Cr1qni2No50GaLPgc7clOJDB7wdhoaY+JQUelwqiE/GHZr2Q9+qyfu1AhmIB9eICXiXDSwuuql2FXZ+wycttnbYiHNkvYdHlWSjPemkvret3TAR2IPVByOYTWf9xosNJgYFxbl/rKvbsDUzdgTHc9GNCbUTJeaGWzj/WZzD6rG5KQUvU04CiJd9mksObBbLj0cuBgEv0DPNjs4x0JY6KFXe+l3kawz/r2Wa9/4Uos9jDMczX7uMsef8Ffys0+5Kc1dZlQlnQB25N/14WAl1G/ISPTX+5NgZeT833m2vW7mR22xK353Tj7zF4IyTgqhQ8DZ2H2BqWScgrW1G9svxd5m+fcyX0jMSZa2DV+I7WJH7lTbZbJ841PJvWrhP/7D39deWtv0uZ9dm+NDXYBUgfAU4FG5SRuwRhpBDwX29gkiM0hxyD1xBu0U+sauaXZx7quQ8/qYcI9Bbpdfb7QpxEHY01sRD5arVtFm2P2AO5o9rGPhDFxc7n2s7NrE2IaQyCpE+lg0PzutOMd/Umh8PMlrZM1kQgSVBIkDWqQ5J/TN2qp/tyvtrxjlWozaRKjYmihzNwP/nSA1e3FpHvb8CbQXNAnoTHBunYeANOOedUYaWBv/AH7l382xfYyMttqBD5VgSy9HmluG+FzJbKpC5eUWbhkoNmngoRAorACXHbud5HBXramaZl30ZgybsAHaFwvO18CJxixzA041RJliRW5t9yH4GNz+jn4R9109WcTJvZmh2POFLyVEXmCN4ZtsmqaHjp34x943OgDNp3QV+1MLdpH6lu4fg9tA3zN1ncwr9z3pW36zdLmNgMSF7CTFaDled/orh34PchZ3t8FFlistujO9TOsTUTprpedc6WNgjPse5T3F42EocfoYau5t/C+55tSdZBClrwIdCrwDeBFIzYnr3Yht0lhTIydbPwBuw0+vzMBGMy/I/G5qE3oA8CChf8o7zPgctv51zRvMLviKsHZoO2/5DlIU0/RyoArQ3+hmve9KozwMuHHc47XCD9eLzvfOstAEiSuQvlmMLj2x40ELfNA84ahZp/Zy2aregv97aW3AvMtz5LoHOnbTDDI5PvKSRjdy0Wsj40+YB/4cvHdpRUD9wMjP5gsEsQ0xNwEvpSgLc69doBrL21Oa1tKqsDFNjnOuDCgO4WuSdoDSZLvZRVkgnyr0T+19v2GX2fV/vxnkG/Ne8LP4qMn1NY3tG7Buj6vC6/+5VhG/LYz9JbV1pyMpNnz+iDTFFv/Bf6R0Jv172vxjAjLD6p7a+Ye3gL9Qw220QdsWJvWdwPQ36wxGqGpgiOBH7SFZOc7JpR13pKRvdn2262t1v+JlghdkleIkrHN+SFL7rLFPq/JNw/94U06Gd8bHsdcAeQ5K6eKuWJ8b3j84U06c60zUOvLqRQfMJxvlFMr2wDXCF3am7ZTamtAvZ/FJ37Sxy5fXgEJL0F8C3QCqCHZV+upX2jpEOYsj0pjImDb4MCfbR5pbk3Ujryf8Tlp0PuFOs4f4SyStChCYBliLubB4bb8DFgsRfxUaSjvt3v+k4b+dx/ROy4lkc9Fvs05dDjbAvm2RD63d1zK/+6T/w2/+NhOQrEajM7D/CmPVrbMSps5RfXdawr8/vMjF6gOW9BPtaz2XV7ctjf4HOSPIEb2G+MpbB6x+euomPGZgzERsOvroN8neVGz6wJC5uXAD2Qfl4otF45g0H7fq4skKkAo/kHwLWDoQ+u1m+QBpBMJvrmhFTc4813ADyW6h3ODupZl0Q380JnvamQ32WXHdJLI90mcAPrnME9B1dJpib2omrVz2TEjl+M/e34fIWRTLH8emGPYNa/5isMhcYGku5pfk5ExJgI2qcEqAz8Fbmn6l7GE8BSJz9meA37tT68bTM5bOjJdJDN2TyCpVCzPA30be/VQEhks7gWOk5PfKklo5FKzcw/tRAWFRPwUfCa4MpSgXXuNK+AzE/FTFRTmHtrgRqJEmqRXGo403LKhp9q1SvfJzAX+x6L3kmPHN7bOdbMX9DF7Xr+QX4X0A5tjjLdseheEjeEWo3PtUCYdG3MAx0TAnvGadhIltKt0HfibwiuaHrRrQ14FYG/M2e1VHYQ0/rxrR6i1vXURVd1Nlp0MfE7oH5j1SnW2XbH9Z+CwQetHFVydMa3x66fMOaSTgFcjnyxxhkTvhgTtesu6V+IM5JMDXj3nkMY/0S8+qpOKsxBSfgWeZfki8Hon5ku60/AVEo5SyjKykQmWhy3oQXYH8oGgsyXeL7mt6cEaMFqB+XpfR/t1ISky96DRtdTsUDX/zI+gC5f0Y6sjQ59BHCk0Ms2U52IwrEQ+S+Z/qsXsvraBIu97XeOD4G+XZtgkg2SvBj4AvM+wrezaBrysDeIZpoy4RegXDr5goK98Z1tH0fu/dmTTqWbP7ydJwsQQOAT4ONILwXKtu2ndxZPrWySa+tDoHcBpScKZISSr5h46sssG7HHyKrZ6cAIPbdm9DdY+wP8DdlZtqYC0nl8Nte3pqsDDsv8P9LNK4qsNlSuOavwle9iCPjJBYjYHfxJzGGjTFooWK41PIUu+b6t//mEbfzrfGq3zEYyAc68o09ZuQuYOJfoo6IsyL2iZs2BXgCssjnPVVyEqIxUMFy0pg2kPYgvhaZhXWtpadqfFSuA+zDWIv0taBlSaufnuYfN6AEokerHRR232lNjWeJKsNgDLg0Irbe6TuFT4xwTfDpTnzOpqWt33OGE1QEHSJsBLBa8FnmdpCtAHPAzcjLga86Cgb/HRI1Pfw+b1g1Vwmu0MHAd6Ky2y5IBrj0h3Cb6eKPzYIR10Zw9zP7Bps6s2YlolVI2oX96UQaI07avuKXwM6E20UPeQ7TuBbyeF5MehEnr2233k7pc/XLKMNMu0auJEQpJINpbJUhnwga9piXsXgE8s6OO+CR10ZtWkqyfbVAqvMd5W1mQAyyuE7rOT63q60sd600LYdnU/P2zQZrtDMf2rKwBEoSBLtScCYWWA8EgFaoCZZ/WRZuqw/P9kPo/8shYKEcHmz+ATC+Vxl6KQnf6xMTG58Ula5tMYaQuXlkmLUrUcXggcAfpPzIQWGm1eDT5X8M2M5K4Eh9G4f2TU+mYu6CZQVur2rYWOQBwkvElLhIdad+FqxDlC/0NvcgcdwXNntc4qmCOpBT6R5vrFVRWAcYUkfFjweUsvapmTUksPuNLSyVlHcrGqzg7YuTU3R4hGp8PO7CNJSLLM/2E4CjRddtoCGXsA2P4X6L+t5Gygb/7MsdNf/XRa41NpskW1lfQKtt4AHGOxpyBtldNjuAf4DsE/SqWVlQAHvDa2tqOhmz2nr7bwa0ZXwB8QfAF4cbPrtYZra9NcKjgxs6+UVJ3fQl1ZzTI2khefw77T2gGqi5YMXJ6hOxL4HNZHLU9uhRQmwXbYJ1t6TQanSKGlFq2PRiEFQpa8SOZziP+03aVWaFXXUktXSPzY6FuS718ws6mTKVtKC3xCrWXhkgqyOq1sP2qPiC9Zk8DbbPVqXG1xksXvscsdLvHuac2vWzQ6HDpvgBBUKBTCHuCjDW9Wi8SBekrjbeCTbV8gqXdeDNZP0hIfVKv53U2PUios16ru7Xej1kXydqDY9JO1Jp0YPSz4vvAcxOP77to6mRtR65p1Zh+YSZiDgCMEz3ty4nqzGKwK8HuLE+9qG7xmarngnx/SGtMkWkmzP6mW9aslVSpUSEm3AD4JPsxoatOv77Uz+zyI+BXSqRSLN1CtulV3a4+aa/aZPaSdy1XtmfpSan3V76/NYITmhwBja5lgjswP0ix7uFosMneMDy4+k2Z/Wi1v4ZIBilJ7JbAf6EvIr6z9TQucOtuIv2FOdFX/Cwzu9/o4GBk9YfaCPmyK4LchjpWZBkpa4fIFsH2T0akOvoA0HVgQA/WzapGPrbUtvLqCrVRpeLnhK8C7sDtaY5DGAI8Z5iKdRn//g+rsZMYucTx5LJu9oJ/gCiLdFJhV2xCXLVvhkq3nVveDfys4Pgu6WSKbPytmgTyXVvj4RoVfLDVtYZBM6WbCh4M/YbNZKwTtei9NFfhfw0kPq3jtZGf+4LSxEbQPP6sPsEKWFCQ6MnkqQGots+lP0lAF+YyDx0ZA+OQPB9jtj2264j39rzAcKTMDtcD08jXdefKjhh9in+G09Ggy2M3cw6c0u3ajQvOjzSizaGkZcEcwb5N1HLAToiXmyNq2pH+ATw32wkTqnTGt+fdpoxw2rw+bDsSOJOwB7AVs49piSggGqG0NdwmByzC3SvTP2YhbcrPn9RGSrD1xsjfSl4GdaZllF5wZbsR8jcQXC/rnHtK8NV1Goxiwh+A311a59f7lvHDLSS83/iLSgfUV11qDvdowB+kHaTG7t7+7nQ+8aeP5qGfO7SarVJNCe+nlsj4q+CBicyCpdevXTwNQfwIKmEcMP7P84+pA+ea0WAgLZm88WQi3bWVO+mYfbf3aEvlw4JMym7RCOiqAzQDyLxHf2Kbvzpvv7nwJZx0cx1s2VGt8mqPUBUsGwUyVmAn6FNDMve2eUOsjKRsWYx8fEq5Byg7YZfTfILPP7MOiQOa3ASdI2pn1b0EG2zcAx5LqYpnq3ENGf2v78NP7CBkJHewMHGt4h0x7K9zd9UzUB4HvGS0AL5t36Og/583SAh/p6LboujJKVAgVv8X2MUJvaImzWttZBYs7ga/L+rkTd8/YtUQrzN4cikPP7MUKaRKS/UDfFDxviKfmXvAXQhIukJNs/ghsYtAohy3oA+iy2Rc4CrEjzU49pT7Jq3YRXgk6Makkf3Ti6pzDxuaiTXkZnXduC7rg+gpUwkuALwEHIjpbKDCuwpxDwjd3dHLP3wkcOMpW/pu9YIAs9JIm7W80zJO145BPr8HyrYJZWRi4Ik06R13e7+wfBDyhGyqlrYQ/CxxkmEILTMpds7MP8EsCp1bauO2sj8RWdR5aZDBi9Hts50tIK8XbEnMEcCTmXlpnK+eJyB+zfdYthL0SksJI79Y+XCYjSdong74kM/RgDSCQ2RH0pSRpn2yyZh/eBpm9oA86+lOVi2+SvcDwacMU0fxgDSB8L+bIJHBEKeG2Pz8QW9V5iQE7J4frHezzhoQgrTKcBjrE6FJwi0QDJTJ7Ys6Uw8eFJy5cOrqCNvBe4z1ziUoSxnsC7232QW2IQ8/qxgpdWDOBs4B3CAotEKcBMuxLgUMUstOCwqofzBzHv45skdptBOKZbIDzrjdtqx+h0rnJ9gQ+B3wE0dUaJ9uAeoGfWXxzk+7k9scmBg58Tet2kRw2vwfweJP82NK+eZ3H2oCYF4nwUVD3nENbN8Vs9oK+WqZ9yguMP4v4iNCEZterxoB6DD+R+Vbywo47w009zP3UxpOF0yrGxsyKEXbAq2sh5fxrynfKfAlxg+Dztndo/kQbgd2JdAhmp+Wd4WuyFp93bWXwgBZdi8S1vYBfCrxCOa6cWC/rFSZ9KXBNs4/zmRx6Zh8BSknBb8IcJ/R6aJHcfwDrn4L/Rjo3Ce45Y89mX+Mbr9gl0kD771aiLS32dCTFM8GHIv3BJjNN7tuuBbxU9u7A3CSETxeqYdL5SweafcqezXbAtrl20tbK2rZedks6dH4/SZUJCnzMMB/pTbRCsK5NL88EfxAc6vLgmaqUe86YHQcXGykG7AZ7z65igGq2ya6lK4BDge+AVjS7XgBISGwjc5wTfijr5edd0Z+c/9fWCdwfPatM4oBhE3ADUjncbtgkceCjZ5WbfbhrHTZnkI+fliUi7ODU3wFOlPX8VkjZA0BeAf4O+NB9bu+4Imlry+YePrHZtdroxYA9AmbsWmQPyRnpvUHpMcARhtbZNUYaB/og5sdJKdm32FkoLrquNQYkS+UqYZzAdDYmUtXKDuNEqVxt9uEC8PE5fXRUQ6HaNvBuoR8BB0nuQrRGsLZvAY5QqB5DVrn3XafKc+L2XSMi9mGPoAOnpZy/pDwQzDmpfBu1HW3e4VbYHAGQtAvw/Wwwe5nNnIuu6H60p62N/ZuYs12sQnkQEuihIc1LI9QTBqHU5Hg9e243FDuoVMtTqm2eCfyX5W1aIZ+/lqHqCuIiiZPJvASl2dzZrTtQuzGKLewRtv+0EgfsVspsrpJ0KPY3ZT/WMhnbsCXmGOCMvlLbLvtP+wIuN692p31iHArC4nGjPnLt/zdGfRaPK4jTPtHkVmImCIOvUuIfWBxvq0WCtZF4TOKbRodiXzV3dlc2d1YM1iOt+VfDGLbo6gGAcUHaW3CMpVe0zAdSi4s3AKc6+FdKNJA1abf22bXp168BzjF+aV5BzLXW9S3AfwLXzW3CY/3BZ5QpplVCSNqUhndLHAns2hJ91U/U4e/AiZJ+A/TNOSROhGmW2MJuon13b2fVsu6+7aaVfoH0n+DzwYPNrhdQ69oVOxufRqKvBthKTbpaAoGMcKvNTXm2OIWwuSkj3BoITTm2QrGCE2+hNBwFzMHetV655pMHwedj/nPh9Vf9om18EoN1k7XCZTHm/XJJmZICwdrUMBv4lMxmLTHPuLbnXhXxO4lTSvbVFRT2HeF+7Xore3/gTCCvGRndwCHA+SPdup69oIeiB1RWxy7AkYK9QS2RCF9/8ngU/D3MXIIfo5Qw96A4sNhssYXdAg6cVmKfXduRk8cC4ZsyhyOWkm+H7RAJ4YLw3pizyujDUuj81YjnbAcgXIz9+3xOi6mVFS5mhFvXtSViNa5MxwdkfixrX9wawRpj0FLM4clg8k2hx+bO7orBukXEgN1C9t2tSIrKJrsQ9GHgHJteN3sRKdX6R2xeAv5u5uTkzOnzF11V5fwRWo8kqWSEtLQaOAV0/XAmH9Veq+uBU0JaWp1URma5l5lz+/jY2d2E4G0xX0P8wOhlqPkr3rr2Ty9wDujD1UK4sNru8py4dnVLaYVn7ugpzl9q5AGswpTEnkltNbatWuPDMliZxSXgE92X/EUFZ/u9ofFdJB9bMMBEtWl56H8H8B2z4VP9azvS6J/AZzZJOi5a5UGfPgJLqx589gDVgpL2/mw3AscCbxMUmn0HPrHNIg8C38VeQCF5nIGMuR+LWSCtpjViQPS0FtVar22298AcB56G1AK5817z5x2Yb1vJT5OQrZqxe+MD3+FzB7CTJKTV1yOfiPU6ROm5LuT6fg5l5L9iHZNkhb9IIZwxu/F1nn1mDwrJeIv/B3zeeIemN6lZuxtMFXmJ0deSoMuAwTmz4sBiq2r+VRM9q4VXB0gfhmzKDojPWfpPYFyrfHCGXuAnwLfHu/qvh1XiIw3erf0TP8n4173/5Hlbbre94IPUfnYwTp8aCOsDaBnwT+Bnhp/d+9A9d77oeTvww480dkmOj5xdprO/n0qh8IIk6DPAwcD4VrnrjPuEzhH+Vk/PuH9OnNjNaQe1yAKA0dNqkUsnei4XXFMGPBn0n4LPIbZrhVRdANtVSX/FPj5zuFyosv9ItLYX9JEqKVQcXmTYFbyHYHtbWwBIfthwJ+gywdKikn9lDtUzRiAj5NAFPdTWqdYbDV8B3iir2AofWG37Lu5B/hbiHMyKuTNH7zZpY0kLXD7R+rrw6iqpk7SSVP/D8tFY06H5A1Zr2H4A+BbSj5PEy7tXlPjIWxpfuU/8pI9gq1p1Uajg+nqskoNxtVBQJZH8w5HYpsrmsDP7QJpk+8M2XxDaFmiRu80GFmOdVGpv/1NWrWanH9S6a6FHT9YSl1C0Yc5bMkhqXoj4LOjDuEUes2tN/m7DQgWfXBC3B8n7jLL9I4dq9tw+qFqhpO0ljhQcYDOhJdLpAeNumbMR3w5V3TH/sJgBMtrEtL5RKOVRlKR3SPoi8FnLtzc78w+off2b8bI/iji7Kr03g9LCJa2zbGmjzD6zB4qhRIl3Cc7GHNJKwRr7duCzWF+sUrpjp8cvaXaNoiFolcspGoILlgxSTUJSCMkbBEfZeqvUAovb19k8BPxACXOc8Pi4bnjnmzeu1vbsE/4F224JwZOxDgU+jbV10+8s1x94RGbzB+BkBV9JojA35laPWs2+rKJhuujG1fzrsfFsNaGytc0RwjORJjW7XrA2+W9Q1iLg66uKxRvHV6vef1prTOobrtln9sHEglhReTnwJcR+WB1Nv6vWjkZ7pdECw/9s2rn6gXtXbcpPD2uZ7/NoCJp9aUU5WbhkAKwOi/2BL2G9vHUex7HhJuAEJfo/oH/GrqM7aB8+rw+gPcjvtDhWZmeav2EnUB9WFDcLnwo+X6J/ziFxEszGoCUusCgf5y7tJVNIOrLSrohjhN5hXGyNNBIDetQwx+IHhYoe3ed1ozNoH3ZGD9VSsmkS+LjgcMMWrRCq6xNhKsgXYZ3ovmSpUoe5n4gTYTYWLXCZRXk6f+kAbYNtlEuVLTEfExyOvGlrfNQGVDZcBJyQJrreJtt3lLS2Zy/oByu1sleBjsG8S6Kt2fUC1iRXP4Z1BnB61tfxUKGrl9iy3ri0wl0cNcAvrjaS2wqq7gMcBd6p9jfN/shr/SOS/o79zSTjF04Y3Hf31oh7z2TW/F4stSX2/qAvInZqdp3WqnWB3Ih9cpqEX0kMnnZwXivQRq2k2Xdv1EALl1TASlHYyfBlzHsR7a3wodcWYeJxxJnI399mXN/9D/SN8767Nn6G5IY49Mwe/jrhZr1h9Su2wvok9qGIqa1z63jA1q8lvk6S3IidzY2bDGy0WuWqixpo4ZIyISSbJAofBz5usWWrfPDGmeCPhpO6tipdIeO3bdMatZv9A0MFeXzf6xFHC73VUGiN2hlbD4FPA58mJcubscVZNLJa49qLGm7R1WWADie8DfgK5tW0yLT2elbDrbK/ZfvnCfRUk4QDmjRDcubcPgptEDI6ZQ7EfAF4aSucqzW5kobrwcfbuhjonz8rBuuxIM50HCP23b3ElOfRv2qgcqHMhyzOsehriT1tBIIdDf9Doq9nSbJ9My/MJIFQ5gUEn2L8XdQqwdog9yGfI+lD7Z2+8F+3Px6D9RjSCpdhNMLOX1oGPEWBg4DPCW3ZEleCwXIGuhR8Skh9uYKy/XcdmQHJWXO7CdVympQ63iQ4CpiOnLbEbWKweAj7W8g/knh8bswAGXNa4EqMmmHRkgqZQyFBbwEfbfF60ax90ddRb/FbvlfomwGdA6xs9OzI2fP6MJ6I+BDii0LbrTNlsHmno7ZITAD9BXSSs+yPSbFYnXtIa2fVRI0RA/YYtvCqMmzVBw93vBDxRdAHgRZpthmjXuDnEt9c7eS2SQrss2u+/dqHLeghSzpIwuCLMV8w/qCkznruYXPPgEFyD/Azm2/0T3zkjnErtmLuCOySE7WmGLDHuEVL+8hCiUTZRKOPgD+L9fxWmLlXnwwSQFcBx6dJWGxT2ecpqX9vPqUPIEmyUBKktW4MantPQhbSpAyEy498cl/v7AX92BQl7wH+immRpwzqaY/ibtC3neonqmarKJWY+5GNa/GsaMO0wm0ZtYCFS8sYF7DfIOs4pDcCzZ+CuHbVOT9g9AOkeQ8u9+O/vq6ahBCm2jzf+PnAC7C2FUxCrs0asboNK5HvA+4Sulvi7iRJlm05IYS2tmQKZqbEfxlv0xIpM7VDrghfYfhaIq4EVeccEgcWoxiwo3X86upeBgrjKGXl7YHPWBwMdDU7kK3TkzxQrvq8y27Jfn3rg2HHRLwB2AGzHWuXlV2333md/20yxD3AP22u7OrQLZtN1HtTcSDQ/D6GelVt9wjOEvpOd5k7J7XDaTFYR3UxYEf/5oIlgwDjMQcKvmTpRWritSKgXDWPrDa3PJBldz7qnnKVTnABtOb/npWf9Ieqiejpamf8+HFK2wuQJE28FWrZMQb+BToV+5dA97xD4z6L0ZPFgB09rV9dlVGoJslgW+V1MkcB70BOmnHJPNYduPm+wL8eCfSXa2kkw13JtJ59QZqIrnaYOE60FZtzO9gE4CLkk0Ml/FWpwvxZLTL2G7WUGLCjZ3XBkkES63mGTyEOsZnc6AHJNQka1czc8UjgursDy7oNOPclp+trmlAqikmdoqtdJBqZhL7aDE+vAM7E+p7ScO/cg2Ogjp5ZDNjRc7rw2iqI9iwL+xm+LPsV69UPMQRrgvVAxdxwd8aN9wUGK/m0qp/tPcGkiZg4rha404SGZ/YZ/o799SRkF4AG5syOK+xFzy4G7Gi9LFxahgQ5Y3fgy4J3YYqNuIL6Bs3SuzL+fl8gC7W27ki06sEkEhPGweROUUgb8abGqAL+reDrpLqagOfGgcVoPcSAHa23X15XZkJ3Sl9HthnwScNhiM3yuIjWtqzL5qp/Zdz8QCCE/LtAnrsetfec0AFTxos0UU7dI2tWbdKjiDmgH4T+9kfTrm7mHjRhRI8xGr1iwI422AVLysi0Gb8P+LKkVw+nvLV91sFce2fg2rsysiYE6yfqU3vvyZ0wuUskyiFo1wq43ubrti4UHpwXF22KNlAM2NGQ/OaKftLMSX9H4RWIY7D3RhrW5gi3PZTxp1szBsrDD9ZPTuN7wvqWa9f6tDedILo6hp6JXp+xOAD6jaQTpba/QwhnHFwY1vFFY1MM2NGQLVxaJlQDSjQVmCXxX6Ath1LWsu7AxTdlPN4dGGqftZ8SoBPV8qtV/7vMT6Tz1Tzz+7heYFtRbD5xaCl/tUa1HwK+LzTPCsvklDkz444w0dDEgB0N2/lL+gFKCek7gWOAXdiAaysL5s+3Zfz93gwPOVjXWuVJQrmzjXsTsbq9qBenCeOlWsCuhtoEnP5BGKw+EbyfqdVd34WcCePEphM2oHVerxHmWqET0yT5naB82iHNn1AZjW4xYEe5WLikDFkm0nRHwxdlH4j0rJ20a/qu73088IebqvQNDq0rxDaFVKG9qCWTxumMJOGPpQLVJPHONp8A9gR1rvndLEDfIKzqN4MVYz9LS7tWNptPFOPa9NypfrVo3Wf5l8A3knJyqwv23NhfHeUgBuwoVxdcPQgOE0mSWcCnJLb1s+xEVsnMn27N+Mf9GbBhudZrui1KBfVO6tRPJo/XKT+9rHLfg6eP5ws/Wk25o420XJ1CmswSHAHabN3Xl6tmZa/p7ofgp/+yWNPNUmtlJyTP2IViZGH5Ppnv2ZonsWruoTFQR/mJATvK3flXDwC0JUrejPwVzOss/Vusk+ChFYHf31hlVX8tB3pD2KaYqnfqBJ2y9WT9MAus/PZ/PmUJ1TN7ADqwDsR8E7Tpuld9FsyKXljV62cJ2qaYis0niY7S0/x9rSMnAH/FHB+ScDkwOD/uCBPlrCXW/o02Lvvv3k5SLAwm5fLFoI8A84Bu/OSMjRDMAysCq/ufrQ3+9OpBNGzSqQUv2Tz5zsoe/1uwBph7SBcOST+BnwGnInrW7mpDbS2RyZ3Q1aHaN8jT7nEpqpkZKD910HJtP3c3MA/5I84KF6eKwTpqjNjCjhpq4dIKhskK/gDwJYvnrbnoBivmohur3LssbFhXSL0l3NWmy7edlHy0GnzPnNnP3vUwa0EvwFTgNKEDnppYPVgxj6yq9Wk/Uyt7XJvYYlJtMs06f3EvcKqsc4EVc2JfddRAsYUdNdSMXYskYkWBdA7SR4E/gKsAfWXqizptuEJC9yZdzH+4J7vnjI8+d5rcvJmdAMuAOcaPPvXv24piQoeQ9G+t6DXKVchC7X/bVDF/AD6aVrM5dojBOmq4mL0fNdy+uxQBsoVLypcJ7jb6rOCg5T1hfLm64eVJor3E7e0l/d/EcUJt69c6r6pCQnJV4nQJ8rvXNLHXNLbHtUGxrxaYn04IUK5AqUC38I+AbwN3n354nFoejYzYwo5GTAVQorstjgKOeGSV7/fQGtiMb9efd9o26a5sQMAvuAgJfcAfvE5v9ZpwX0xFqVj7L/9eL2HMQMX3Y46QdVSgcHchhGaf1mgMiQE7GjHvn1Zi312KJKanGvjRzfeHy8MGBmzbJCLrL/P77/5usDqubf0v4YJMUi1YcL3Q4FP/XjLthdr/fyar+7k8BP/I0DP/0DZOi0uiRiMoBuxoxM2YVuK03w2GgYqL9oZPlimmVG2W7bh1gf/+0PrPHjz9kK41wXgleNW//0ZtSdWny1ipzZYUWaB4x4MOcSJM1AyxDztqiqQggCFtWpgkZKUizobeG1EF+p/uL57tu6P+V53xromaJV56UXMMI6E0C6SDFRSG1AEuqF33T9tEfqLIp1lQNSbBRk0Wu0SiZuodyosqGYU0YfNr76zwpZ8PrvfrDj6rghwwbGKY+NS/t6GSrRmNfMboPKQ6R1EeYsCOmmOlwV7OBjaSa3nSpO0Fv/OL724rdvetf5pIIVTIkiQBXgOUnvy3tU1+Byv2MzbcTa3OK4eY2hJFwxQDdtQUnoxB91LrT95g3YO8/raHGN+epuv9mtKgKFTokP1W8NomdC1Aq3+gwtUDZZbXdmd/2iKqoHtrdY+ikRcDdtQUCmBxm0VlQ19rm4EyO3SXPePx/my9X1cumSzlzUbT1o3HEg8YTnx4lS+v2hOeaV0Ti4rFbYqp11GTxIAdNYmwfPPTp9c9t2pg3Op+Du7qSF70kTP66B549ig6e34/QpsJZkpMWTvL0b5G4vA7H81+X6363ULPshO8V9XqHEcfo+aIATtqEpMEHpX524a+cs16H70Dft0jK8Jnn79JMuFjZ/Y/4+/Pmt9LNXPJeDbinfX37zH+iRJ/6PYHsqtCxuclXv6s72v+lgQeJfaIRE0SA3bUFDaEAVYa/jCU10siC9bqfh9y60PVz265iSZ/7ty+f/u9Q+f1EELoSAueifgcdofxfYavtBX4r9sf9EoSviKY8VwtZ8MfwgArhzqdPoqGK+ZhR00xsKKLjik9xlyJfZelF2x4R4OoZm5b2afPh0e89ZQuTrV9R1/ZPuKcQZKkQgjJFuCPGT4t6AL+lKKvVYr+09/vDS9M0LHADEPpmd6/tua17xJcqQ7c/3hc6zpqjtgZFzXNXiesRqYjJMl3EbPqO7dsUBlrWrtJQuhs45b2IqdN6Ur+Uky8ejDTNMNh4GnAP4V+mVU59/ZHQ3uS8HZgNvbLQdKzbf2FwMxLQvi0Rf8lx8bV+aLmiAE7aqrpJ/UA7Gk4V3jzoVySa/ZdBCimykoFbpd4pL2oLdOUVbb/3lfWrb39HjC8DNgN/ApJxfUoHaNHBB8ALl18dGxdR80Tu0SipspswH9J0C9c27R3g9VeU3thJXNaydhR0o69gx4E99psDbwX6JLcVvvd9Xuj+pfBLzL8l9i+iZotDjpGTdVWzUiSZFAwR3DDcMfzpCd2jbHdZmsT0FaSp0i0bUjQra8mcoNgTpIkg23V9c/5jqJGiAE7aqqLvzqJxIGCKrcA35C9LI9y1wRu6ckt8A0qo1aXbxRUuSVx4OKvTmr26YrGuBiwo6a75OgJVEOHceECpO8BA82uEzCA9D1cuKAaOnzJ0XGgMWq+GLCjlrD42A6salny98HzbZebVZfae3u+5O9b1fLiY597k98oGgkxYEcto7NzGVlVKx34Gug0YGAk56jU32sAdJoDX8uqWtnZmUsPTRTlIg57Ry1n+sm9ABPt8BmZT1qaqqfZTyA3rq3dJ3uZxQ+k5DvAqsVHDWlDnChqmBiwo5a010mrAdptvc9wJNIrgSTvC7beqg7YNwlOkXwhMBD7rKNWFAN21LKmH9+DgxMKvEjiE5j9LG0Nw79w13S1yH4AcYHND6nyLyUKi78SJ8dErSkG7Kjl1VvbnbZ2Az6A9G7DZjKFNdsQPNeF/ESABouq4FHs/wPOlXwN0Btb1VGriwE7GhX2OmE1xZ4eVcaP77D0QsM7ZN4Cfj6wBaLLKIEnLuq1QRoHTA/wMOhuiz8KLpJ9R7G7u7/S1eW4Pkg0GsSAHY0604/vQQVwYBz4xcBLjbYW3hoYb+gEUG3D3G6jB4QfAG4B3a6EPlchdn1Eo00M2NFGYc+fLVN6V7GgqorVtLaoUyFzxQVXshdUqpd+cGpcxTqKoiiKoiiKoiiKoiiKoiiKoiiKoiiKoiiKoiiKoiiKoiiKoiiKoiiKoiiKoiiKoiiKoiiKoiiKoiiKoiiKoiiKoiiKoiiKoiiKoiiKoiiKoiiKoiiKoiiKoiiKoiiKoiiKoiiKoiiKoiiKoiiKoiiKoiiKoiiKoiiKoiiKoiiKoiiKoiiKoiiKoiiKoiiKoiiKoiiKoiiKoiiKoiiKoiiKoiiKoiga6/4/4GVDAaAFq3sAAAAldEVYdGRhdGU6Y3JlYXRlADIwMjMtMDYtMTVUMTg6MDk6MTkrMDA6MDA37IpoAAAAJXRFWHRkYXRlOm1vZGlmeQAyMDIzLTA2LTE1VDE4OjA5OjE5KzAwOjAwRrEy1AAAAABJRU5ErkJggg==;" parent="74" vertex="1">
                    <mxGeometry width="30" height="30" relative="1" as="geometry">
                        <mxPoint x="15" y="15" as="offset"/>
                    </mxGeometry>
                </mxCell>
                <mxCell id="85" value="" style="strokeColor=#dddddd;shadow=1;strokeWidth=1;rounded=1;absoluteArcSize=1;arcSize=2;" parent="1" vertex="1">
                    <mxGeometry x="980" y="190" width="140" height="60" as="geometry"/>
                </mxCell>
                <mxCell id="86" value="Cloud Data &#10;Fusion &amp; &#10;Prep" style="editableCssRules=.*;fontColor=#999999;shape=image;verticalLabelPosition=middle;labelBackgroundColor=#ffffff;verticalAlign=middle;labelPosition=right;align=left;spacingLeft=20;part=1;points=[];imageAspect=0;image=data:image/svg+xml,PHN2ZyB4bWxucz0iaHR0cDovL3d3dy53My5vcmcvMjAwMC9zdmciIHhtbG5zOnY9Imh0dHBzOi8vdmVjdGEuaW8vbmFubyIgd2lkdGg9IjM3Ny4wNDk2OTgzMjc3ODkyNiIgaGVpZ2h0PSIzNzcuMjkxNTcwNzE1Nzg5NzYiIHZpZXdCb3g9IjAuMTMxMDAwNTE4Nzk4ODI4MTIgLTAuMTIxMDAwMDA2Nzk0OTI5NSA5OS43NjEwMDE1ODY5MTQwNiA5OS44MjQ5OTY5NDgyNDIxOSI+JiN4YTs8c3R5bGUgdHlwZT0idGV4dC9jc3MiPiYjeGE7CS5zdDB7ZmlsbDojNjY5ZGY2O30mI3hhOwkuc3Qxe2ZpbGw6IzQyODVmNDt9JiN4YTsJLnN0MntmaWxsOiNhZWNiZmE7fSYjeGE7PC9zdHlsZT4mI3hhOwk8cGF0aCBjbGFzcz0ic3QwIiBkPSJNODAuNTkzIDE5LjE4djIwLjE5OWgxOS4yOTlWOS41M2MwLTIuNTM3LS45NzktNC44NDYtMi41OC02LjU2OHptLTkuOTA4IDYxLjIyNUgxOS40MzFMMy40NSA5Ny4zMzdjMS42OTUgMS40NzQgMy45MDggMi4zNjcgNi4zMzEgMi4zNjdoNzAuNTU1YzIuODczIDAgNS40NTMtMS4yNTYgNy4yMjEtMy4yNDh6Ii8+JiN4YTsJPHBhdGggY2xhc3M9InN0MSIgZD0iTTg3LjU3MyA5Ni40MzdjMS41MDEtMS43MDEgMi40MTMtMy45MzUgMi40MTMtNi4zODJWNjAuMjA0SDcwLjY4NXYyMC4yMDF6Ii8+JiN4YTsJPHBhdGggY2xhc3M9InN0MiIgZD0iTTE5LjQzMSA4MC40MDVWMjkuMzRoMjAuNTc4VjEwLjA0SDkuNzgxYy01LjMzIDAtOS42NSA0LjMyMS05LjY1IDkuNjV2NzAuMzY1Yy4wMDEgMi45MDYgMS4yODYgNS41MTMgMy4zMiA3LjI4MXptNzcuODgtNzcuNDQzQzk1LjU1IDEuMDY2IDkzLjAzNi0uMTIgOTAuMjQ0LS4xMjFINTkuOTUxVjE5LjE4aDIwLjY0M3oiLz4mI3hhOzwvc3ZnPg==;" parent="85" vertex="1">
                    <mxGeometry width="30" height="30" relative="1" as="geometry">
                        <mxPoint x="15" y="15" as="offset"/>
                    </mxGeometry>
                </mxCell>
                <mxCell id="94" value="mirrored in EU if necessary" style="shape=note;whiteSpace=wrap;html=1;backgroundOutline=1;darkOpacity=0.05;fillColor=#fff2cc;strokeColor=#d6b656;rotation=15;" vertex="1" parent="1">
                    <mxGeometry x="1120" y="-72.16" width="100" height="123.61" as="geometry"/>
                </mxCell>
            </root>
        </mxGraphModel>
    </diagram>
</mxfile>